<?xml version="1.0" standalone="no"?>
<!DOCTYPE svg PUBLIC "-//W3C//DTD SVG 20010904//EN"
 "http://www.w3.org/TR/2001/REC-SVG-20010904/DTD/svg10.dtd">
<svg version="1.0" xmlns="http://www.w3.org/2000/svg"
 width="360.000000pt" height="298.000000pt" viewBox="0 0 360.000000 298.000000"
     preserveAspectRatio="xMidYMid meet">

<g transform="translate(0.000000,298.000000) scale(0.100000,-0.100000)"
fill="#000000" stroke="none">
<path fill="#AB7C94" d="M1525 2959 c-21 -5 -48 -18 -60 -28 -11 -10 -28 -21 -37 -24 -18 -6
-25 -27 -10 -27 4 0 21 -12 37 -26 l30 -26 -38 21 c-51 28 -58 27 -50 -9 8
-43 -15 -117 -38 -123 -10 -3 -36 4 -56 15 -44 23 -131 25 -172 3 -15 -7 -37
-34 -50 -60 l-23 -46 26 -39 c31 -47 32 -53 7 -45 -14 4 -38 -10 -90 -55 -80
-68 -81 -71 -157 -199 -33 -55 -54 -101 -51 -112 3 -10 -3 -25 -14 -35 -10 -9
-19 -25 -19 -34 0 -9 -9 -25 -19 -34 -22 -20 -41 -88 -41 -149 0 -77 25 -140
75 -186 24 -22 50 -41 56 -41 16 0 109 -60 109 -70 0 -4 -24 -11 -52 -17 l-53
-9 101 -8 c100 -8 101 -8 91 -30 -17 -36 -64 -57 -152 -67 -45 -5 -102 -15
-129 -23 -43 -13 -52 -13 -107 6 -33 11 -63 17 -66 14 -13 -12 23 -34 82 -50
185 -52 224 -70 175 -83 -10 -3 -22 -14 -26 -25 -4 -13 -11 -17 -22 -13 -10 4
-30 11 -47 15 -16 4 -82 23 -145 43 -63 20 -132 39 -152 43 -28 4 -38 11 -38
25 0 11 -9 21 -24 25 -47 11 -60 2 -70 -49 -4 -26 -6 -53 -3 -61 8 -19 78 -30
121 -18 30 9 62 2 218 -42 180 -50 183 -52 200 -86 15 -29 28 -38 81 -56 55
-18 66 -20 82 -8 22 16 85 19 85 4 0 -5 -4 -10 -9 -10 -5 0 -20 -9 -33 -20
-12 -11 -39 -30 -58 -43 -25 -16 -36 -31 -38 -52 -3 -27 2 -32 38 -47 22 -10
51 -18 64 -18 13 0 27 -7 30 -16 6 -17 -46 -44 -86 -44 -13 0 -43 -10 -68 -21
-25 -11 -81 -33 -125 -49 -44 -15 -145 -53 -225 -83 l-145 -56 -3 35 c-3 33
-22 50 -22 19 0 -9 -9 -15 -24 -15 -40 0 -50 -23 -43 -100 3 -40 2 -70 -3 -70
-11 0 -2 -60 11 -75 6 -6 16 -3 26 8 16 16 16 18 -2 32 -20 14 -20 14 1 15 19
0 34 -17 34 -39 0 -4 -14 -17 -31 -30 -23 -17 -33 -20 -44 -11 -10 8 -19 9
-32 1 -16 -9 -16 -10 -1 -11 20 0 34 -36 21 -53 -5 -7 -10 -23 -11 -35 -1 -26
-27 -72 -41 -72 -5 0 -13 6 -19 13 -8 9 -1 26 29 64 48 64 51 80 5 30 -36 -40
-59 -48 -54 -19 1 9 -1 23 -6 30 -5 8 4 23 25 43 17 16 29 33 25 36 -3 4 -12
1 -18 -5 -21 -21 -27 -13 -17 18 11 31 23 38 34 20 8 -13 45 -13 45 1 0 5 -5
7 -11 4 -5 -4 -18 0 -28 9 -25 23 -14 76 19 93 18 9 25 21 27 48 3 52 52 99
96 92 26 -4 51 6 124 48 87 50 263 128 346 155 20 6 37 14 37 16 0 11 -69 65
-106 83 -23 12 -68 26 -100 32 -86 16 -145 6 -274 -46 -39 -16 -108 -64 -155
-109 -22 -21 -50 -45 -63 -53 -12 -9 -22 -20 -22 -27 0 -6 -9 -17 -20 -24 -11
-7 -20 -18 -20 -25 0 -6 -16 -29 -35 -50 -19 -20 -32 -44 -29 -51 3 -8 -3 -19
-15 -25 -12 -7 -23 -26 -27 -49 -4 -20 -13 -45 -21 -54 -9 -10 -13 -25 -9 -33
3 -9 -1 -24 -10 -32 -8 -9 -13 -25 -11 -35 3 -11 1 -33 -5 -49 -7 -21 -7 -34
0 -41 7 -7 7 -16 -1 -28 -8 -14 -8 -22 1 -32 6 -8 9 -24 5 -36 -3 -14 1 -30
11 -41 9 -10 13 -20 10 -24 -10 -9 15 -65 32 -71 8 -3 14 -12 14 -20 0 -18
109 -116 129 -116 9 0 25 -7 35 -15 13 -10 23 -11 31 -5 9 7 16 6 25 -5 9 -11
17 -12 30 -5 13 7 21 7 25 0 22 -35 255 60 344 139 19 17 38 31 42 31 4 0 11
9 14 20 3 11 12 20 19 20 12 0 56 52 56 66 0 4 9 16 20 28 62 65 90 106 90
130 0 7 7 19 15 26 8 7 15 22 15 34 1 36 41 71 148 131 l104 57 37 -36 c42
-41 63 -44 129 -17 27 11 82 21 130 24 56 4 89 10 101 21 9 8 57 26 107 39
112 30 164 56 225 113 51 49 74 90 95 168 12 44 11 56 -4 98 -20 58 -10 76 32
57 22 -10 33 -10 62 4 19 9 42 17 52 17 34 0 80 38 92 77 24 73 69 151 115
197 26 25 52 46 60 46 7 0 19 -14 28 -31 15 -31 14 -32 -37 -98 -46 -61 -108
-172 -152 -276 -26 -59 -32 -258 -10 -324 9 -27 16 -56 16 -64 0 -8 7 -20 15
-27 9 -7 13 -20 10 -30 -3 -9 3 -24 15 -35 11 -10 20 -24 20 -31 0 -7 11 -21
23 -31 13 -10 29 -28 36 -41 6 -12 18 -22 27 -22 8 0 17 -6 20 -14 3 -8 20
-20 37 -27 18 -7 38 -19 45 -26 7 -7 25 -13 38 -13 14 0 36 -7 49 -16 20 -13
28 -14 40 -4 13 10 19 10 34 -4 15 -13 24 -15 38 -8 12 7 25 7 36 0 10 -5 32
-6 50 -2 18 4 43 8 57 9 89 7 246 66 303 112 16 13 32 23 37 23 4 0 23 15 42
33 18 18 41 36 51 40 10 4 25 20 35 37 9 16 23 30 29 30 7 0 22 18 33 40 11
22 25 40 30 40 5 0 19 20 30 44 11 25 24 47 29 51 5 3 13 20 16 38 4 17 13 39
19 47 17 20 39 114 42 175 1 28 6 58 10 68 3 10 2 28 -4 41 -5 12 -8 34 -5 49
3 15 0 34 -7 42 -6 8 -9 19 -5 24 6 11 -9 51 -48 129 -35 69 -124 156 -192
187 -33 15 -71 34 -85 41 -14 7 -58 17 -97 22 -131 18 -281 -14 -431 -93 -45
-24 -89 -42 -98 -38 -9 3 -1 -19 22 -58 56 -96 74 -119 93 -119 11 0 44 -36
85 -94 38 -52 79 -99 92 -105 32 -14 48 -56 35 -90 -9 -24 -9 -23 -10 15 -1
38 -23 74 -46 74 -5 0 -16 7 -26 16 -16 14 -18 13 -29 -21 -9 -26 -21 -40 -42
-47 -21 -8 -26 -14 -19 -21 8 -8 5 -15 -11 -23 -19 -10 -24 -8 -41 12 -10 13
-15 28 -12 34 3 5 1 10 -4 10 -27 0 -6 18 43 39 38 15 53 27 49 36 -4 12 -14
11 -55 -5 -28 -10 -59 -27 -69 -36 -12 -11 -19 -13 -19 -5 0 7 -4 10 -8 7 -11
-6 -72 30 -72 43 0 5 4 11 10 13 10 3 -79 224 -126 312 -20 39 -23 51 -12 57
7 5 16 9 21 9 4 0 7 14 7 30 0 19 9 40 23 54 19 18 21 27 13 45 -13 31 1 41
72 51 46 6 101 29 224 91 l163 82 130 -12 c122 -10 132 -10 155 8 14 10 25 27
25 37 0 22 -25 35 -195 99 -91 34 -135 45 -160 42 -77 -10 -342 -68 -385 -84
-6 -2 -16 24 -22 58 -14 74 -46 124 -95 150 -51 26 -54 24 -15 -11 39 -34 52
-66 30 -74 -8 -3 -11 -1 -8 4 9 14 -8 13 -23 -2 -16 -16 -28 18 -12 37 9 11 5
21 -23 50 -34 35 -63 50 -35 18 9 -10 25 -48 37 -84 12 -36 28 -75 36 -85 14
-18 16 -18 29 -1 15 19 51 23 61 6 9 -14 -23 -79 -39 -79 -7 0 -19 11 -26 25
-19 35 -24 23 -10 -20 10 -31 10 -40 -3 -52 -13 -13 -19 -12 -53 5 -22 11 -52
34 -67 50 -27 28 -28 31 -13 54 19 30 15 150 -6 157 -7 2 -25 14 -39 28 -22
20 -30 22 -53 13 -39 -15 -48 -13 -41 10 5 16 2 20 -17 20 -30 0 -113 52 -128
79 -6 12 -17 21 -25 21 -8 0 -24 9 -34 19 -11 11 -38 25 -60 31 -23 6 -41 15
-41 20 0 20 -41 50 -63 47 -12 -2 -17 -2 -11 0 7 2 14 17 17 32 3 16 23 49 44
75 37 45 39 45 85 40 56 -7 108 3 108 19 0 18 -130 113 -165 122 -27 6 -28 8
-10 15 18 7 15 10 -19 25 -22 9 -54 27 -70 40 -60 44 -146 56 -241 34z m-50
-59 c3 -5 1 -10 -4 -10 -6 0 -11 5 -11 10 0 6 2 10 4 10 3 0 8 -4 11 -10z
m268 -347 c-5 -12 -7 -12 -14 -1 -5 7 -9 19 -9 27 0 11 3 11 14 1 8 -6 12 -18
9 -27z m42 -162 c3 -6 27 -13 53 -17 38 -6 56 -16 99 -58 36 -36 53 -60 54
-81 2 -20 18 -46 47 -76 l44 -46 -41 -16 c-28 -12 -55 -15 -86 -10 -31 4 -45
2 -45 -6 0 -6 -5 -11 -11 -11 -5 0 -7 5 -4 10 3 6 0 10 -9 10 -9 0 -13 8 -11
25 2 20 -1 24 -14 20 -18 -5 -71 54 -71 80 0 8 -13 42 -30 74 -25 51 -28 62
-17 85 12 26 31 34 42 17z m250 -43 c50 -24 58 -38 21 -34 -28 3 -76 32 -76
46 0 14 3 13 55 -12z m147 -214 c59 -83 68 -103 25 -60 -15 14 -35 26 -47 26
-11 0 -20 1 -20 3 0 1 -9 27 -20 57 -24 65 -23 63 -7 58 6 -3 38 -40 69 -84z
m48 47 c0 -5 -7 -11 -15 -15 -9 -3 -15 0 -15 9 0 8 7 15 15 15 8 0 15 -4 15
-9z m-604 -100 c23 -20 69 -58 103 -85 33 -28 61 -53 61 -57 0 -24 -213 -153
-327 -198 l-53 -21 0 49 c0 28 -4 61 -9 74 -19 50 -92 100 -130 90 -24 -6 -56
-57 -46 -73 3 -6 -3 -10 -14 -10 -23 0 -26 15 -10 57 13 35 27 44 59 36 24 -5
24 -5 5 10 -19 15 -19 16 15 43 18 16 59 52 90 81 44 41 65 54 105 61 58 10
87 -1 151 -57z m543 -30 c24 -6 24 -7 -17 -39 -22 -18 -72 -43 -111 -57 -38
-13 -78 -32 -90 -44 -12 -12 -27 -18 -37 -14 -14 5 -13 9 7 24 13 10 55 31 93
46 38 15 64 29 58 31 -5 1 -27 -4 -48 -13 -59 -24 -52 -9 10 20 31 15 56 30
56 35 0 16 41 22 79 11z m155 -132 c16 -28 26 -52 24 -54 -1 -2 -15 -1 -30 2
-20 4 -30 14 -39 42 -6 20 -16 42 -22 49 -7 9 -3 12 15 12 19 0 31 -11 52 -51z
m-331 -36 c-7 -2 -19 -2 -25 0 -7 3 -2 5 12 5 14 0 19 -2 13 -5z m-278 -59
c-11 -9 -42 -27 -70 -40 -27 -13 -42 -19 -31 -12 76 52 102 68 111 67 6 0 1
-7 -10 -15z m645 6 c13 0 107 -167 98 -174 -33 -27 -43 -24 -70 27 -16 28 -40
71 -55 96 -21 37 -23 43 -8 37 16 -6 16 -4 4 11 -12 15 -12 16 4 10 10 -4 22
-7 27 -7z m-417 -117 c-29 -88 -43 -114 -72 -140 -20 -18 -45 -32 -56 -32 -15
-1 -16 2 -7 8 11 7 11 9 -2 14 -20 8 -21 33 -1 44 13 7 13 15 0 63 -8 30 -11
58 -6 63 13 13 155 86 168 87 7 0 -1 -39 -24 -107z m-868 63 c31 -13 33 -16
22 -39 -6 -14 -16 -23 -20 -20 -5 3 -13 0 -17 -7 -6 -9 -15 0 -29 28 -12 23
-21 44 -21 47 0 9 30 5 65 -9z m49 -41 c-9 -14 -19 -24 -21 -21 -6 6 20 46 30
46 4 0 0 -11 -9 -25z m596 1 c0 -2 -8 -24 -19 -48 -19 -45 -42 -71 -58 -66
-13 4 -133 -95 -133 -109 0 -7 -6 -13 -14 -13 -8 0 -45 -34 -82 -75 -37 -41
-72 -75 -77 -75 -5 0 7 18 27 40 20 23 47 64 60 93 26 58 49 82 180 186 77 61
116 83 116 67z m-577 -53 c-7 -2 -19 -2 -25 0 -7 3 -2 5 12 5 14 0 19 -2 13
-5z m-42 -53 c27 -15 24 -26 -13 -39 -38 -14 -45 -9 -30 24 13 28 16 29 43 15z
m619 -9 c0 -12 -20 -25 -27 -18 -7 7 6 27 18 27 5 0 9 -4 9 -9z m-465 -11 c3
-5 2 -10 -4 -10 -5 0 -13 5 -16 10 -3 6 -2 10 4 10 5 0 13 -4 16 -10z m-122
-84 c3 -8 23 -24 44 -36 22 -12 45 -31 52 -42 12 -20 11 -20 -16 -12 -15 5
-58 9 -95 8 -63 0 -68 1 -68 22 0 48 69 98 83 60z m447 4 c0 -5 -8 -10 -17
-10 -15 0 -16 2 -3 10 19 12 20 12 20 0z m1458 -67 c-3 -27 -8 -56 -12 -65 -5
-11 -4 -18 2 -18 6 0 13 14 17 30 4 17 12 30 19 30 18 0 59 47 52 59 -13 20
105 -31 152 -66 35 -26 40 -44 17 -63 -8 -7 -15 -18 -15 -24 1 -6 9 -1 19 12
11 12 22 22 25 22 3 0 18 -18 32 -40 23 -34 27 -54 31 -133 l5 -92 -60 -22
c-32 -13 -64 -23 -69 -23 -6 0 -23 -6 -38 -14 -15 -8 -34 -12 -41 -9 -8 3 -14
0 -14 -6 0 -6 -4 -11 -10 -11 -5 0 -10 11 -10 25 0 14 4 25 9 25 5 0 17 3 27
7 12 4 15 3 10 -5 -5 -8 1 -12 15 -12 22 0 22 0 3 15 -10 8 -24 15 -31 15 -6
0 -13 3 -16 8 -2 4 -2 1 -1 -5 4 -17 -6 -16 -30 2 -20 15 -14 37 8 29 8 -3 17
0 22 7 5 9 2 10 -9 6 -13 -5 -17 -1 -17 14 0 11 -4 17 -10 14 -5 -3 -10 -15
-10 -26 0 -10 -5 -19 -11 -19 -7 0 -8 16 -3 45 5 39 4 44 -10 39 -11 -4 -15
-13 -11 -25 6 -16 2 -18 -27 -13 -18 3 -38 7 -45 9 -7 2 -15 0 -18 -5 -4 -6
-11 -10 -18 -10 -8 0 -8 3 1 12 14 14 16 32 3 23 -5 -3 -13 0 -16 6 -4 6 -18
8 -31 5 -31 -8 -31 6 1 35 13 13 25 28 25 33 0 5 -10 0 -23 -12 -13 -12 -26
-22 -30 -22 -4 0 -5 37 -1 83 5 58 3 79 -4 72 -6 -6 -12 -44 -14 -85 l-3 -75
-32 47 c-24 33 -33 59 -34 90 -2 30 -3 34 -6 16 -5 -31 -13 -34 -31 -16 -21
21 -13 33 33 56 51 25 81 28 89 10 4 -7 4 -3 2 9 -3 19 2 24 27 31 32 8 32 8
37 -32 l5 -41 9 40 c10 52 13 55 43 55 24 0 25 -2 21 -47z m62 39 c0 -5 -9
-17 -20 -27 -20 -18 -20 -17 -20 8 0 20 5 27 20 27 11 0 20 -4 20 -8z m-1377
-57 c-7 -19 -33 -20 -33 -1 0 15 20 26 32 19 4 -2 5 -10 1 -18z m-263 -5 c-6
-11 -13 -20 -16 -20 -2 0 0 9 6 20 6 11 13 20 16 20 2 0 0 -9 -6 -20z m220
-26 c0 -2 -9 -4 -21 -4 -11 0 -18 4 -14 10 5 8 35 3 35 -6z m-39 -10 c13 -16
10 -17 -38 -12 -30 3 -56 1 -63 -6 -7 -7 -10 -5 -10 6 0 19 7 22 59 26 26 1
43 -3 52 -14z m-456 -34 c18 -20 17 -20 -19 -20 -20 0 -53 -7 -73 -15 -47 -20
-64 -19 -56 3 18 51 112 72 148 32z m213 -7 c-14 -16 -33 -43 -42 -61 -18 -36
-16 -39 38 -44 16 -2 31 -9 34 -17 3 -10 -3 -11 -27 -6 -21 4 -52 -1 -97 -15
-66 -22 -66 -22 -86 -2 -20 19 -20 19 34 26 65 8 71 12 93 56 26 52 55 90 68
90 6 0 -1 -12 -15 -27z m-238 -64 c12 -8 9 -9 -12 -5 -22 5 -26 3 -22 -9 4 -9
0 -15 -9 -15 -8 0 -26 -9 -41 -21 -33 -26 -37 -2 -3 28 35 32 63 39 87 22z
m703 -36 c-7 -2 -19 -2 -25 0 -7 3 -2 5 12 5 14 0 19 -2 13 -5z m-233 -17 c0
-19 -27 -46 -46 -46 -17 0 -19 31 -2 48 17 17 48 15 48 -2z m64 -47 c-21 -24
-74 -54 -74 -42 1 10 84 72 89 67 2 -2 -4 -13 -15 -25z m916 -25 c22 -15 39
-28 38 -29 -8 -8 -108 21 -108 30 0 32 20 32 70 -1z m-1009 -47 c-10 -9 -11
-8 -5 6 3 10 9 15 12 12 3 -3 0 -11 -7 -18z m1004 4 l40 -7 -66 -12 c-84 -15
-82 -16 -69 8 11 21 30 24 95 11z m70 -73 c-4 -29 -9 -57 -12 -61 -6 -10 -152
2 -175 14 -14 8 -15 14 -7 38 9 26 18 30 82 44 122 25 120 26 112 -35z m691
16 c-3 -9 -6 -19 -6 -24 0 -5 -13 -3 -30 3 l-30 11 23 13 c31 17 50 16 43 -3z
m-649 -41 c-17 -18 -22 -8 -11 22 5 12 10 13 17 6 8 -8 6 -16 -6 -28z m596 6
c20 -5 37 -11 37 -13 0 -2 -5 -17 -11 -35 -10 -29 -14 -31 -43 -25 l-31 7 24
-20 25 -20 -33 -52 c-18 -28 -44 -60 -57 -70 -13 -10 -24 -23 -24 -28 0 -22
-146 -129 -220 -162 -48 -21 -186 -48 -196 -38 -3 3 2 19 11 36 8 17 13 31 11
31 -3 0 -13 -15 -22 -32 -9 -18 -18 -34 -19 -36 -2 -2 -31 3 -65 10 -66 13
-81 27 -59 56 12 15 11 15 -8 -1 -17 -15 -25 -16 -42 -7 -12 6 -21 16 -21 23
0 7 29 44 64 82 l65 70 16 -22 c10 -14 27 -23 43 -23 46 0 102 12 102 22 0 5
-6 6 -12 2 -10 -6 -10 -5 -1 8 7 8 10 18 6 21 -3 4 1 7 9 7 20 0 41 -26 35
-42 -4 -8 -6 -7 -6 5 -1 9 -8 17 -16 17 -13 0 -13 -3 -3 -20 17 -26 43 -21 42
8 0 12 5 22 13 22 7 0 12 -9 10 -22 -2 -21 2 -23 33 -20 19 2 43 11 53 19 9 9
20 13 23 10 4 -3 13 1 22 10 14 14 17 13 30 -3 13 -18 14 -18 7 4 -7 26 3 28
31 7 32 -24 41 -17 10 8 -22 18 -27 28 -22 45 9 26 38 29 89 7 42 -17 57 -19
57 -5 0 5 -17 12 -37 16 -21 4 -48 11 -61 15 -22 8 -22 10 -7 40 16 29 15 31
-4 36 -32 8 -26 17 27 41 54 24 73 26 125 11z m-778 -80 c-75 -23 -75 -23 -75
1 0 18 6 20 68 19 l67 -1 -60 -19z m90 -19 c-16 -16 -37 -32 -47 -36 -10 -3
-18 -11 -18 -18 0 -16 -78 -91 -86 -83 -11 11 -22 95 -14 107 8 12 144 59 174
60 17 0 16 -4 -9 -30z m48 -56 c18 -37 13 -60 -22 -95 -9 -9 -34 -40 -56 -68
-22 -28 -43 -51 -47 -51 -9 0 -68 91 -68 105 0 13 106 118 135 133 32 18 40
14 58 -24z m46 -19 c0 -5 -6 -1 -14 9 -8 11 -15 27 -15 35 1 17 29 -26 29 -44z
m114 -15 c4 -14 0 -20 -11 -20 -15 0 -15 -2 -2 -11 10 -7 11 -9 2 -7 -8 2 -13
7 -13 11 1 4 1 16 1 27 0 11 4 20 9 20 5 0 11 -9 14 -20z m147 -45 c11 -13 10
-14 -4 -9 -9 3 -16 10 -16 15 0 13 6 11 20 -6z m-1850 -20 c0 -2 -10 -9 -22
-15 -22 -11 -22 -10 -4 4 21 17 26 19 26 11z m-55 -35 c-3 -5 -11 -10 -16 -10
-6 0 -7 5 -4 10 3 6 11 10 16 10 6 0 7 -4 4 -10z m-685 -40 c0 -5 -7 -10 -16
-10 -8 0 -12 5 -9 10 3 6 10 10 16 10 5 0 9 -4 9 -10z m395 -22 c-14 -72 -16
-74 -31 -38 -17 40 -10 70 17 70 18 0 20 -4 14 -32z m-55 12 c0 -5 -4 -10 -9
-10 -6 0 -13 5 -16 10 -3 6 1 10 9 10 9 0 16 -4 16 -10z m-31 -19 c7 -5 11
-13 7 -19 -7 -11 -56 7 -56 21 0 10 32 9 49 -2z m41 -47 c12 -32 13 -64 1 -64
-5 0 -8 8 -7 17 0 11 -7 19 -20 21 -19 3 -20 6 -10 27 14 32 24 31 36 -1z
m-340 -194 c0 -9 -40 -30 -56 -30 -14 0 0 22 19 30 30 12 37 12 37 0z m80 -26
c0 -12 -21 -44 -29 -44 -15 0 -22 33 -9 42 15 9 38 11 38 2z m-125 -34 c-16
-16 -30 -28 -32 -26 -8 8 12 38 31 46 32 13 32 12 1 -20z m42 -23 c-3 -24 -9
-52 -13 -62 -6 -16 -1 -15 23 8 34 32 43 34 43 9 0 -37 -24 -54 -78 -55 -65
-1 -79 11 -62 53 11 25 74 90 89 90 2 0 1 -19 -2 -43z m-147 -1 c0 -3 -4 -8
-10 -11 -5 -3 -10 -1 -10 4 0 6 5 11 10 11 6 0 10 -2 10 -4z m169 -22 c-15
-18 -22 -13 -13 10 3 9 10 13 16 10 5 -3 4 -12 -3 -20z m112 16 c10 0 19 -4
19 -10 0 -11 -39 -13 -64 -4 -9 3 -13 10 -10 16 3 5 13 7 21 4 8 -3 23 -6 34
-6z m-36 -60 c-3 -5 -10 -10 -16 -10 -5 0 -9 5 -9 10 0 6 7 10 16 10 8 0 12
-4 9 -10z"/>
<path fill="#AB7C94" d="M1878 1764 c-27 -13 -48 -29 -48 -34 0 -6 2 -10 4 -10 13 0 106 54
106 61 0 13 -10 10 -62 -17z"/>
<path d="M1853 1710 c-32 -19 -44 -40 -23 -40 22 0 70 31 70 45 0 20 -9 19
-47 -5z"/>
<path  fill="#AB7C94" d="M1850 1621 c0 -6 5 -13 10 -16 6 -3 10 1 10 9 0 9 -4 16 -10 16 -5 0
-10 -4 -10 -9z"/>
<path fill="#AB7C94"  d="M3125 1390 c-25 -40 -45 -74 -43 -75 2 -2 25 28 51 67 26 39 45 73
43 75 -3 3 -26 -27 -51 -67z"/>
<path fill="#AB7C94" d="M2990 1355 c-7 -9 -11 -18 -8 -20 3 -3 11 1 18 10 7 9 11 18 8 20 -3
3 -11 -1 -18 -10z"/>
<path fill="#AB7C94" d="M2945 1350 c-3 -5 -1 -10 4 -10 6 0 11 5 11 10 0 6 -2 10 -4 10 -3 0
-8 -4 -11 -10z"/>
<path fill="#AB7C94" d="M3048 1283 c-11 -3 -18 -14 -18 -29 0 -14 -7 -27 -15 -30 -22 -9 -18
-23 5 -17 11 3 20 13 20 22 0 9 7 27 16 39 8 12 14 21 12 21 -2 -1 -11 -3 -20
-6z"/>
<path fill="#AB7C94" d="M3199 1253 c-32 -39 -44 -57 -32 -50 13 8 57 67 50 67 -2 0 -10 -8
-18 -17z"/>
<path fill="#AB7C94" d="M3066 1244 c-26 -19 -17 -26 13 -10 13 7 20 16 15 19 -5 3 -18 -1
-28 -9z"/>
<path  fill="#AB7C94"  d="M3256 1220 c-49 -22 -93 -37 -97 -34 -8 5 -24 -15 -17 -22 5 -4 203
78 214 89 14 14 -13 5 -100 -33z"/>
<path fill="#AB7C94" d="M3263 1167 c-51 -17 -93 -35 -93 -40 0 -5 8 -6 18 -2 9 4 52 18 95
32 42 13 77 29 77 34 0 5 -1 8 -2 8 -2 -1 -45 -15 -95 -32z"/>
<path fill="#AB7C94" d="M3170 1005 c0 -6 32 -19 70 -29 14 -3 7 3 -15 13 -42 21 -55 24 -55
16z"/>
<path fill="#AB7C94" d="M2563 753 c-18 -9 -33 -20 -33 -25 0 -5 18 1 40 12 22 11 40 23 40
25 0 8 -13 5 -47 -12z"/>
<path fill="#AB7C94" d="M2394 2311 c20 -22 26 -25 26 -13 0 4 -10 13 -22 21 -23 14 -23 14
-4 -8z"/>
<path fill="#AB7C94" d="M2572 1434 c-28 -20 -29 -39 -1 -24 11 7 23 9 26 7 2 -3 -5 -10 -16
-16 -12 -7 -18 -17 -14 -26 4 -13 8 -13 22 -3 14 12 15 11 2 -5 -12 -15 -11
-21 10 -45 13 -15 29 -31 35 -37 6 -5 11 -12 11 -15 0 -3 3 -15 7 -27 l7 -23
29 22 c35 25 30 41 -8 27 l-27 -9 22 17 c16 13 20 22 14 32 -8 12 -14 12 -38
-3 l-28 -17 30 25 30 26 -25 0 c-17 0 -21 3 -12 8 19 13 3 45 -20 39 -16 -5
-17 -3 -6 10 10 12 9 17 -5 28 -9 6 -14 15 -10 18 13 13 -13 7 -35 -9z"/>
<path fill="#AB7C94" d="M2777 1184 c-14 -14 -7 -35 11 -32 9 2 17 10 17 17 0 16 -18 25 -28
15z"/>
<path fill="#AB7C94" d="M303 618 c-10 -14 -24 -48 -20 -48 2 0 13 14 25 30 21 28 16 45 -5
18z"/>
<path fill="#AB7C94" d="M291 494 c0 -11 3 -14 6 -6 3 7 2 16 -1 19 -3 4 -6 -2 -5 -13z"/>
</g>
</svg>
