<?xml version="1.0" standalone="no"?>
<!DOCTYPE svg PUBLIC "-//W3C//DTD SVG 20010904//EN"
 "http://www.w3.org/TR/2001/REC-SVG-20010904/DTD/svg10.dtd">
<svg version="1.0" xmlns="http://www.w3.org/2000/svg"
 width="50.000000pt" height="50.000000pt" viewBox="0 0 50.000000 50.000000"
 preserveAspectRatio="xMidYMid meet">

<g transform="translate(0.000000,50.000000) scale(0.100000,-0.100000)"
fill="#000000" stroke="none">
<path fill="#AB7C94" d="M160 458 c-77 -40 -111 -139 -76 -223 14 -32 13 -36 -3 -45 -43 -23
-70 -140 -32 -140 24 0 68 35 76 61 7 20 8 19 25 -8 22 -37 77 -83 99 -83 24
0 58 27 91 71 25 36 29 38 35 20 8 -26 52 -61 76 -61 39 0 15 105 -31 137 -18
13 -18 16 -3 50 18 45 13 121 -11 157 -19 30 -133 86 -173 86 -16 0 -49 -10
-73 -22z m138 -18 c18 -11 38 -20 45 -20 8 0 24 -11 37 -25 27 -29 38 -105 20
-150 l-12 -30 -13 43 c-25 81 -65 118 -80 72 -7 -23 -44 -44 -93 -55 -18 -4
-46 -18 -62 -32 l-30 -25 -11 29 c-15 39 -6 119 18 151 24 34 79 62 118 62 17
0 45 -9 63 -20z m48 -155 c29 -70 11 -151 -48 -213 -18 -17 -40 -32 -49 -32
-23 0 -78 56 -95 97 -30 71 -12 103 68 123 25 7 57 23 69 36 30 32 37 30 55
-11z m-230 -137 c-6 -31 -41 -78 -58 -78 -15 0 -8 45 12 78 27 44 55 44 46 0z
m314 0 c20 -33 27 -78 12 -78 -17 0 -52 47 -58 78 -9 44 19 44 46 0z"/>
<path fill="#AB7C94" d="M180 205 c0 -8 7 -15 15 -15 8 0 15 7 15 15 0 8 -7 15 -15 15 -8 0
-15 -7 -15 -15z"/>
<path  fill="#AB7C94" d="M290 205 c0 -8 7 -15 15 -15 8 0 15 7 15 15 0 8 -7 15 -15 15 -8 0
-15 -7 -15 -15z"/>
</g>
</svg>
