<?xml version="1.0" encoding="UTF-8" standalone="no"?>
<!-- Created with Inkscape (http://www.inkscape.org/) -->

<svg
   width="210mm"
   height="297mm"
   viewBox="0 0 210 297"
   version="1.1"
   id="svg1102"
   inkscape:version="1.2.2 (732a01da63, 2022-12-09)"
   sodipodi:docname="motosvet.svg"
   xmlns:inkscape="http://www.inkscape.org/namespaces/inkscape"
   xmlns:sodipodi="http://sodipodi.sourceforge.net/DTD/sodipodi-0.dtd"
   xmlns="http://www.w3.org/2000/svg"
   xmlns:svg="http://www.w3.org/2000/svg">
  <sodipodi:namedview
     id="namedview1104"
     pagecolor="#ffffff"
     bordercolor="#000000"
     borderopacity="0.25"
     inkscape:showpageshadow="2"
     inkscape:pageopacity="0.0"
     inkscape:pagecheckerboard="0"
     inkscape:deskcolor="#d1d1d1"
     inkscape:document-units="mm"
     showgrid="false"
     inkscape:zoom="0.73851712"
     inkscape:cx="396.74097"
     inkscape:cy="561.25984"
     inkscape:window-width="1350"
     inkscape:window-height="1032"
     inkscape:window-x="299"
     inkscape:window-y="136"
     inkscape:window-maximized="0"
     inkscape:current-layer="layer1" />
  <defs
     id="defs1099" />
  <g
     inkscape:label="Layer 1"
     inkscape:groupmode="layer"
     id="layer1">
    <g
       id="Layer1018"
       style="fill:#241f1c"
       transform="matrix(0.35277777,0,0,0.35277777,-124.94166,-346.17371)">
      <g
         id="Layer1019"
         style="fill:#241f1c">
        <g
           id="Layer1020"
           style="fill:#241f1c">
          <path
             d="m 550.2853,1072.8975 c -0.4059,-0.2545 -0.8539,-0.6057 -1.3086,-0.9812 -0.4543,-0.3758 -0.9145,-0.7754 -1.4477,-1.1147 -0.5331,-0.3393 -1.1391,-0.6182 -1.7266,-0.8605 -0.5875,-0.2423 -1.1569,-0.4481 -1.6175,-0.5935 -0.4602,-0.1454 -0.8114,-0.2304 -1.0478,-0.2667 -0.2364,-0.036 -0.3574,-0.024 -0.418,0.03 -0.0607,0.054 -0.0607,0.1514 0.1088,0.3574 0.1698,0.2061 0.509,0.521 0.8302,0.8483 0.3211,0.3271 0.6237,0.6664 0.8235,0.9753 0.2002,0.3089 0.2971,0.5875 0.2849,0.8661 -0.0119,0.2786 -0.1332,0.5575 -0.303,0.8243 -0.1695,0.2663 -0.3874,0.5205 -0.7207,0.7569 -0.3333,0.2361 -0.7814,0.4544 -1.357,0.5694 -0.5754,0.1151 -1.2783,0.1273 -1.9083,0.1273 -0.6298,0 -1.1873,-0.012 -1.666,-0.036 -0.4784,-0.024 -0.878,-0.061 -1.1506,-0.079 -0.2727,-0.018 -0.4181,-0.018 -0.5698,0.037 -0.1513,0.054 -0.3086,0.1632 -1.0296,0.6904 -0.7207,0.5269 -2.0052,1.4721 -3.114,2.2354 -1.1084,0.7632 -2.0411,1.3448 -3.0045,2.0111 -0.9631,0.6663 -1.9568,1.4177 -2.7626,2.0296 -0.8054,0.6116 -1.4233,1.0841 -1.9382,1.4355 -0.515,0.3512 -0.9268,0.5816 -1.3934,0.7936 -0.4665,0.212 -0.9874,0.4059 -1.4358,0.5091 -0.448,0.1028 -0.8239,0.1147 -1.5753,0.1269 -0.751,0.012 -1.8776,0.024 -3.1136,-0.01 -1.2357,-0.03 -2.5806,-0.1032 -3.8588,-0.2546 -1.2783,-0.1513 -2.4896,-0.3818 -3.5377,-0.6119 -1.0481,-0.2301 -1.9323,-0.4602 -2.502,-0.5812 -0.5694,-0.1214 -0.8236,-0.1336 -1.3871,-0.3093 -0.5634,-0.1757 -1.4358,-0.515 -2.2294,-0.7995 -0.7936,-0.2849 -1.5084,-0.515 -2.3201,-0.8358 -0.8117,-0.3211 -1.7203,-0.7332 -2.3141,-1.024 -0.5935,-0.2908 -0.8724,-0.4603 -1.2601,-0.5754 -0.3877,-0.1153 -0.8843,-0.1757 -1.7689,-0.2119 -0.8845,-0.037 -2.1565,-0.049 -2.9016,-0.043 -0.7451,0.01 -0.9634,0.03 -1.0785,0.091 -0.115,0.06 -0.1269,0.1573 -0.0906,0.2483 0.0362,0.091 0.121,0.1757 0.2482,0.212 0.1273,0.036 0.2968,0.024 0.6845,0.018 0.3877,-0.01 0.9937,-0.01 1.5146,-0.012 0.5209,-0.01 0.9571,-0.018 1.4237,0.042 0.4665,0.06 0.963,0.1939 1.4536,0.3878 0.4909,0.1938 0.9756,0.448 1.539,0.751 0.5635,0.303 1.2054,0.6541 1.999,1.0844 0.7936,0.4299 1.7388,0.939 2.9382,1.5872 1.1995,0.6481 2.6531,1.4355 3.9069,2.0536 1.2542,0.6179 2.3083,1.066 3.326,1.5021 1.0178,0.4362 1.999,0.8606 2.938,1.1695 0.9389,0.3089 1.8357,0.5028 2.5927,0.6544 0.7573,0.1514 1.3752,0.2602 2.0234,0.2846 0.6481,0.024 1.3267,-0.036 2.0718,-0.333 0.7451,-0.2971 1.5571,-0.8302 2.0903,-1.333 0.5331,-0.5028 0.7873,-0.9753 1.0355,-1.363 0.2486,-0.3877 0.491,-0.6907 0.6786,-0.9268 0.1879,-0.2363 0.3211,-0.4061 0.7813,-0.5878 0.4606,-0.1817 1.2479,-0.3755 2.0415,-0.5209 0.7936,-0.1454 1.5935,-0.2424 2.5262,-0.3634 0.933,-0.1213 1.9993,-0.2667 3.017,-0.3695 1.0178,-0.1032 1.9868,-0.1636 2.9983,-0.1998 1.0118,-0.037 2.0659,-0.049 2.8835,-0.049 0.818,0 1.3996,0.012 1.9446,0.091 0.5453,0.079 1.0544,0.2242 1.5146,0.3817 0.4606,0.1573 0.8724,0.3271 1.2661,0.5513 0.3939,0.2239 0.7695,0.5028 1.0177,0.7695 0.2486,0.2664 0.3696,0.5206 0.4362,0.8055 0.0669,0.2845 0.0788,0.5997 0.0788,0.9086 0,0.3089 -0.0119,0.6119 -0.0847,0.9331 -0.0725,0.3211 -0.2061,0.66 -0.3818,1.0055 -0.1754,0.3452 -0.3937,0.6964 -0.7089,1.3145 -0.3148,0.6179 -0.7266,1.5021 -1.1025,2.3261 -0.3755,0.8239 -0.7144,1.5874 -0.963,2.2053 -0.2483,0.6179 -0.4059,1.0903 -0.5757,1.5809 -0.1694,0.4906 -0.3511,0.9996 -0.4905,1.3752 -0.1392,0.3755 -0.2361,0.6178 -0.218,0.7695 0.0182,0.1513 0.1514,0.212 0.2905,0.2242 0.1394,0.012 0.2848,-0.024 0.509,-0.3877 0.2242,-0.3637 0.5269,-1.0541 0.8602,-1.6963 0.3333,-0.6423 0.6967,-1.2357 1.2298,-2.0234 0.5331,-0.7876 1.236,-1.7688 1.7751,-2.4533 0.539,-0.6848 0.9149,-1.0725 1.2116,-1.3451 0.2967,-0.2727 0.515,-0.43 0.7085,-0.5269 0.1939,-0.097 0.3637,-0.1335 0.5454,-0.097 0.1816,0.036 0.3755,0.1454 0.66,0.5512 0.2849,0.4059 0.6607,1.1088 1.1088,1.8842 0.4484,0.7752 0.9693,1.6235 1.3933,2.2898 0.424,0.6663 0.7514,1.151 1.0178,1.5994 0.2667,0.448 0.4724,0.8601 0.6541,1.1084 0.182,0.2483 0.3392,0.3333 0.6966,0.2061 0.3574,-0.1273 0.9149,-0.4666 1.1935,-0.7392 0.2786,-0.2727 0.2786,-0.4784 0.1636,-0.7267 -0.1151,-0.2486 -0.3452,-0.5394 -1.0722,-1.7325 -0.727,-1.1935 -1.9505,-3.2898 -2.6231,-4.4467 -0.6722,-1.1572 -0.7936,-1.3751 -0.6966,-1.5812 0.0969,-0.2061 0.4121,-0.3999 0.8179,-0.6482 0.4059,-0.2486 0.9024,-0.5512 1.4778,-0.8358 0.5756,-0.2848 1.2301,-0.5515 1.987,-0.7754 0.7574,-0.2242 1.6179,-0.4062 2.696,-0.515 1.0784,-0.1091 2.3748,-0.1457 3.6408,-0.097 1.2661,0.048 2.5021,0.182 3.5621,0.3759 1.0599,0.1939 1.9445,0.4481 2.8713,0.7936 0.9268,0.3452 1.8961,0.7814 2.629,1.1206 0.7333,0.3393 1.2298,0.5816 1.8476,0.9149 0.6182,0.333 1.3571,0.757 1.8295,1.0419 0.4728,0.2845 0.6785,0.4299 0.8905,0.5087 0.212,0.079 0.4303,0.091 0.5391,0.043 0.1091,-0.048 0.1091,-0.1576 0.006,-0.3636 -0.1028,-0.2061 -0.3086,-0.5087 -1.175,-1.2235 -0.8661,-0.7148 -2.3926,-1.8417 -3.8466,-2.7504 -1.4536,-0.9086 -2.8351,-1.599 -4.2831,-2.114 -1.4477,-0.515 -2.962,-0.8542 -4.319,-1.03 -1.3571,-0.1757 -2.5565,-0.1876 -3.841,-0.066 -1.2842,0.121 -2.6531,0.3752 -3.4892,0.5812 -0.8361,0.2061 -1.1388,0.3634 -1.363,0.4847 -0.2242,0.121 -0.3695,0.206 -0.5393,0.2182 -0.1695,0.012 -0.3634,-0.049 -0.5391,-0.2729 -0.1757,-0.2242 -0.333,-0.6116 -0.333,-0.9446 0,-0.3334 0.1573,-0.6123 0.3874,-0.8846 0.2305,-0.2727 0.5335,-0.5394 0.7636,-0.8361 0.2304,-0.2968 0.3877,-0.6241 0.4724,-1.2661 0.0851,-0.6422 0.097,-1.5993 0.0122,-2.4048 -0.0847,-0.8058 -0.2667,-1.4602 -0.5878,-2.0477 -0.3208,-0.5875 -0.7814,-1.1088 -1.1932,-1.4481 -0.4118,-0.3392 -0.7754,-0.4965 -1.1813,-0.751 z"
             style="fill:#241f1c;fill-rule:evenodd;stroke:#1b1918;stroke-width:0.216;stroke-linecap:butt;stroke-linejoin:miter;stroke-dasharray:none"
             id="path828" />
          <path
             d="m 506.5918,1107.67 c 0.4059,0.1332 0.5879,0.5575 0.7392,0.8483 0.1513,0.2908 0.2727,0.4481 0.2908,0.5513 0.0181,0.1029 -0.0669,0.1513 -0.7092,0.2179 -0.6419,0.067 -1.8413,0.1517 -3.3438,0.2545 -1.5021,0.1029 -3.3075,0.2242 -4.5432,0.2605 -1.2357,0.036 -1.9024,-0.012 -2.1991,-0.1091 -0.2967,-0.097 -0.2242,-0.2423 0.5513,-0.4481 0.7754,-0.206 2.2538,-0.4728 3.6286,-0.7148 1.3752,-0.2423 2.6475,-0.4606 3.5983,-0.6481 0.9512,-0.188 1.5813,-0.3456 1.9871,-0.2124 z"
             style="fill:#241f1c;fill-rule:evenodd;stroke:#1b1918;stroke-width:0.216;stroke-linecap:butt;stroke-linejoin:miter;stroke-dasharray:none"
             id="path830" />
          <path
             d="m 510.9234,1106.6041 c 0.0969,0.3271 0.4843,0.7873 0.7085,1.151 0.2242,0.3633 0.2849,0.63 0.3877,0.7936 0.1032,0.1635 0.2483,0.2238 0.4725,0.2482 0.2242,0.024 0.5272,0.012 0.9512,-0.01 0.4243,-0.018 0.9693,-0.043 1.2723,-0.1091 0.303,-0.067 0.3633,-0.1758 0.3511,-0.3149 -0.0119,-0.1395 -0.0969,-0.3093 -0.4543,-0.7151 -0.3574,-0.4059 -0.9875,-1.0478 -1.4177,-1.3992 -0.4299,-0.3515 -0.6601,-0.4118 -0.9571,-0.424 -0.2968,-0.012 -0.6601,0.024 -0.939,0.1391 -0.2786,0.1151 -0.4721,0.3089 -0.3752,0.6363 z"
             style="fill:#241f1c;fill-rule:evenodd;stroke:#1b1918;stroke-width:0.216;stroke-linecap:butt;stroke-linejoin:miter;stroke-dasharray:none"
             id="path832" />
          <path
             d="m 508.6274,1109.2997 c 0.3089,-0.1879 0.939,-0.1998 1.5083,-0.2057 0.5694,-0.01 1.0785,-0.01 1.4237,0.018 0.3452,0.024 0.5272,0.073 0.6482,0.212 0.1213,0.1392 0.1816,0.3696 0.5997,0.7755 0.418,0.4058 1.1932,0.9871 2.0352,1.5627 0.8421,0.5754 1.751,1.1451 2.5505,1.545 0.7999,0.3996 1.4903,0.6297 2.1869,0.8417 0.6967,0.212 1.3996,0.4059 1.8055,0.5028 0.4058,0.097 0.5146,0.097 0.6175,0.1635 0.1032,0.067 0.2001,0.2002 0.206,0.3396 0.006,0.1392 -0.0788,0.2845 -0.3574,0.3511 -0.2786,0.067 -0.751,0.055 -1.9808,-0.01 -1.2298,-0.061 -3.2165,-0.1698 -4.5617,-0.3211 -1.3448,-0.1517 -2.0474,-0.3452 -2.4717,-0.4543 -0.424,-0.1092 -0.5691,-0.1332 -0.6723,-0.073 -0.1028,0.06 -0.1635,0.2058 -0.2364,0.5028 -0.0725,0.2967 -0.1572,0.7448 -0.1876,1.1751 -0.0303,0.4299 -0.006,0.842 0.0607,1.2116 0.0666,0.3693 0.1754,0.6967 0.1813,0.9874 0.006,0.2908 -0.0906,0.545 -0.2845,0.7755 -0.1939,0.2301 -0.4846,0.4359 -0.7148,0.7751 -0.2301,0.3393 -0.3999,0.8121 -0.5209,1.2482 -0.121,0.4362 -0.1939,0.8358 -0.2301,1.1207 -0.0363,0.2845 -0.0363,0.4543 -0.1395,0.5938 -0.1029,0.1391 -0.3089,0.2479 -0.4543,0.4299 -0.1454,0.1817 -0.2301,0.4362 -0.3271,0.5997 -0.0969,0.1635 -0.2057,0.2364 -0.9327,0.2727 -0.727,0.036 -2.0721,0.036 -2.7991,0.024 -0.727,-0.012 -0.8358,-0.037 -0.727,-0.3274 0.1091,-0.2908 0.4365,-0.848 0.7939,-1.3386 0.3574,-0.4909 0.7451,-0.9149 0.9993,-1.2542 0.2546,-0.3392 0.3759,-0.5934 0.4847,-0.9327 0.1091,-0.3392 0.206,-0.7635 0.3696,-1.1147 0.1635,-0.3514 0.394,-0.6304 0.5634,-0.9512 0.1698,-0.3211 0.2786,-0.6847 0.3574,-1.3873 0.0788,-0.7026 0.1273,-1.7448 0.1151,-2.3564 -0.0122,-0.6119 -0.0847,-0.7939 -0.2971,-0.9208 -0.212,-0.1273 -0.5631,-0.2001 -1.1628,-0.3271 -0.5997,-0.1272 -1.448,-0.3092 -2.3567,-0.4484 -0.9086,-0.1394 -1.8776,-0.2364 -2.4533,-0.327 -0.5753,-0.091 -0.7573,-0.1758 -0.8724,-0.3515 -0.115,-0.1757 -0.1635,-0.4421 0.2302,-0.6238 0.394,-0.182 1.2297,-0.2789 2.1325,-0.3636 0.9027,-0.085 1.8717,-0.1576 2.538,-0.2242 0.6666,-0.067 1.0299,-0.127 1.2723,-0.1876 0.2423,-0.061 0.3636,-0.1213 0.4724,-0.2242 0.1092,-0.1032 0.2061,-0.2483 0.2483,-0.5028 0.0425,-0.2545 0.0307,-0.6179 0.3396,-0.8058 z"
             style="fill:#241f1c;fill-rule:evenodd;stroke:#1b1918;stroke-width:0.216;stroke-linecap:butt;stroke-linejoin:miter;stroke-dasharray:none"
             id="path834" />
          <path
             d="m 495.3848,1110.1563 c 0.1454,0.1239 0.3995,0.3178 0.66,0.4906 0.2605,0.1724 0.5272,0.3241 0.7725,0.4302 0.2453,0.1059 0.4695,0.1662 0.6904,0.1906 0.2212,0.024 0.4395,0.012 0.6119,0.024 0.1728,0.012 0.3,0.048 0.3788,0.118 0.0788,0.07 0.1091,0.1728 0.0333,0.3274 -0.0755,0.1543 -0.2575,0.36 -0.5394,0.4843 -0.2815,0.1243 -0.663,0.1665 -1.1295,0.188 -0.4665,0.021 -1.0178,0.021 -1.3633,0.015 -0.3452,-0.01 -0.4843,-0.018 -0.545,-0.2242 -0.0607,-0.206 -0.0425,-0.606 -0.0274,-0.9178 0.0152,-0.3123 0.0274,-0.5361 0.0274,-0.73 0,-0.1939 -0.0122,-0.3577 0.0211,-0.4576 0.0333,-0.1 0.1121,-0.1362 0.1695,-0.127 0.0577,0.01 0.0943,0.064 0.2397,0.188 z"
             style="fill:#241f1c;fill-rule:evenodd;stroke:#1b1918;stroke-width:0.216;stroke-linecap:butt;stroke-linejoin:miter;stroke-dasharray:none"
             id="path836" />
          <path
             d="m 494.5107,1107.2249 c -0.4761,0.032 -0.9482,0.069 -1.4038,0.1266 -0.6499,0.082 -1.2664,0.2081 -1.8104,0.4227 -0.5133,0.2024 -0.9703,0.4866 -1.3755,0.8104 -0.4098,0.3277 -0.7735,0.7019 -1.0933,1.0775 -0.3178,0.3728 -0.5911,0.7464 -0.8206,1.1252 -0.2262,0.3755 -0.4118,0.7573 -0.5559,1.1493 -0.1454,0.3963 -0.2505,0.8025 -0.3244,1.2067 -0.0748,0.4075 -0.1203,0.8213 -0.147,1.2268 -0.0267,0.4131 -0.0343,0.8101 -0.0327,1.1962 0.009,1.6656 -0.6465,1.8341 -0.6567,0 -0.002,-0.4108 0.006,-0.8246 0.0326,-1.2403 0.0277,-0.4243 0.0765,-0.8628 0.1576,-1.304 0.0815,-0.445 0.1955,-0.8882 0.3521,-1.3148 0.1586,-0.4316 0.362,-0.8503 0.6113,-1.2624 0.2479,-0.4075 0.542,-0.8101 0.8839,-1.2116 0.3403,-0.4003 0.7323,-0.8025 1.1836,-1.1635 0.4563,-0.3647 0.9697,-0.6842 1.5456,-0.9113 0.609,-0.24 1.2816,-0.3769 1.9838,-0.4649 0.4619,-0.058 0.9374,-0.096 1.4154,-0.1273 0.7346,-0.048 0.7521,0.611 0.0544,0.6561 z"
             style="fill:#241f1c;fill-rule:evenodd;stroke:#1b1918;stroke-width:0.216;stroke-linecap:butt;stroke-linejoin:miter;stroke-dasharray:none"
             id="path838" />
          <path
             d="m 567.0033,1107.3064 c -0.7847,-0.1382 -1.7029,-0.1326 -2.5849,0.026 -0.96,0.1724 -1.8713,0.5256 -2.505,1.0672 -0.1395,0.1184 -0.0903,0.1154 -0.2272,-0.03 l -0.238,-0.2528 c -0.1213,-0.1289 -0.1039,-0.098 0.0478,-0.2262 0.7276,-0.6162 1.7448,-1.0138 2.8064,-1.2044 0.9831,-0.1767 2.0141,-0.1774 2.8928,-0.012 1.0006,0.188 0.8404,0.8137 -0.1919,0.6321 z"
             style="fill:#241f1c;fill-rule:evenodd;stroke:#1b1918;stroke-width:0.216;stroke-linecap:butt;stroke-linejoin:miter;stroke-dasharray:none"
             id="path840" />
          <path
             d="m 559.347,1110.239 c -0.7955,1.0999 -1.2528,2.114 -1.3827,3.2199 -0.1213,1.0329 0.0386,2.1621 0.4695,3.5294 0.2176,0.689 -0.1072,1.7325 -0.4853,0.6317 -0.5661,-1.6538 -0.7841,-2.9967 -0.6383,-4.2357 0.1678,-1.3108 0.7405,-2.4249 1.4691,-3.4789 0.06,-0.086 0.0557,-0.1362 0.1306,-0.082 l 0.4052,0.2971 c 0.0854,0.063 0.0883,0.039 0.0319,0.118 z"
             style="fill:#241f1c;fill-rule:evenodd;stroke:#1b1918;stroke-width:0.216;stroke-linecap:butt;stroke-linejoin:miter;stroke-dasharray:none"
             id="path842" />
          <path
             d="m 483.7359,1084.7033 c -0.2183,0.4969 -0.3755,1.3326 -0.4118,1.8236 -0.0366,0.4905 0.0485,0.6359 1.6963,0.9145 1.6475,0.2786 4.8581,0.6908 7.6509,1.0785 2.7926,0.3877 5.1671,0.751 7.1238,1.1206 1.9568,0.3696 3.4955,0.7451 4.3556,0.9453 0.8602,0.1998 1.0422,0.2238 -0.3026,-0.2486 -1.3448,-0.4725 -4.2165,-1.4418 -6.6879,-2.2413 -2.4718,-0.7999 -4.5436,-1.4296 -6.3065,-1.9627 -1.7629,-0.5331 -3.2165,-0.9693 -4.2221,-1.3267 -1.0056,-0.3574 -1.5631,-0.6363 -1.9808,-0.6967 -0.4181,-0.061 -0.697,0.097 -0.9149,0.5935 z"
             style="fill:#241f1c;fill-rule:evenodd;stroke:#1b1918;stroke-width:0.216;stroke-linecap:butt;stroke-linejoin:miter;stroke-dasharray:none"
             id="path844" />
          <path
             d="m 526.6325,1107.554 c 1.2964,-0.067 1.333,-0.1151 1.145,-0.6419 -0.1879,-0.5272 -0.5997,-1.5328 -1.0115,-2.2413 -0.4121,-0.7089 -0.8242,-1.121 -1.2301,-1.4118 -0.4058,-0.2908 -0.8054,-0.4603 -1.2779,-0.5087 -0.4728,-0.048 -1.0178,0.024 -1.4962,0.212 -0.4787,0.1879 -0.8908,0.4906 -1.2601,0.8361 -0.3696,0.3452 -0.6969,0.7329 -0.9149,1.1084 -0.2182,0.3756 -0.327,0.7392 -0.3814,1.0603 -0.0614,0.3591 -0.1731,1.0702 -0.2173,1.421 -0.0135,0.1062 0.0181,0.2008 0.1526,0.2552 0.1286,0.052 6.0582,-0.067 6.4918,-0.089 z"
             style="fill:#241f1c;fill-rule:evenodd;stroke:#1b1918;stroke-width:0.216;stroke-linecap:butt;stroke-linejoin:miter;stroke-dasharray:none"
             id="path846" />
          <path
             d="m 556.9231,1100.9508 c -0.3152,0.1513 -0.8239,0.6241 -1.0903,0.9027 -0.2667,0.2786 -0.2911,0.3633 0.3452,1.4418 0.636,1.0781 1.9323,3.1499 2.6471,4.2161 0.7148,1.0663 0.8483,1.1266 1.0847,0.9572 0.2361,-0.1698 0.5754,-0.5694 0.7755,-0.854 0.1998,-0.2848 0.2601,-0.4546 0.2601,-0.6544 0,-0.1998 -0.0603,-0.4303 -0.6478,-1.4055 -0.5879,-0.9753 -1.7026,-2.6959 -2.3205,-3.6409 -0.6178,-0.9449 -0.7391,-1.1147 -1.054,-0.963 z"
             style="fill:#241f1c;fill-rule:evenodd;stroke:#1b1918;stroke-width:0.216;stroke-linecap:butt;stroke-linejoin:miter;stroke-dasharray:none"
             id="path848" />
          <path
             d="m 528.0673,1110.5994 c 0.0363,-0.515 0.1632,-1.5028 0.242,-2.0722 0.0788,-0.5693 0.1092,-0.721 0.4969,-0.7876 0.3877,-0.067 1.1328,-0.048 2.0296,-0.036 0.8964,0.012 1.9446,0.018 2.5324,0.018 0.5875,0 0.7145,-0.01 0.6723,0.1029 -0.0426,0.1091 -0.2546,0.3329 -1.0119,0.8357 -0.7573,0.5028 -2.0596,1.2845 -2.9653,1.754 -0.9057,0.4695 -1.4147,0.6271 -1.6963,0.6848 -0.2815,0.057 -0.3363,0.015 -0.2997,-0.4998 z"
             style="fill:#241f1c;fill-rule:evenodd;stroke:#1b1918;stroke-width:0.216;stroke-linecap:butt;stroke-linejoin:miter;stroke-dasharray:none"
             id="path850" />
          <path
             d="m 516.9984,1109.3663 c -0.5226,-0.3636 -0.6132,-0.4517 -0.6723,-0.5183 -0.0593,-0.067 -0.0863,-0.1117 -0.0956,-0.1496 -0.009,-0.038 0,-0.068 0.0287,-0.089 0.0287,-0.021 0.0772,-0.033 0.5875,-0.038 0.5104,0 1.483,0 1.9904,0 0.5074,0.01 0.5496,0.015 0.5753,0.033 0.0258,0.018 0.035,0.045 0.0742,0.4164 0.0393,0.3709 0.1092,1.086 0.15,1.4691 0.0409,0.3832 0.0531,0.4346 0.0139,0.4649 -0.0396,0.03 -0.1302,0.039 -0.6528,-0.2756 -0.5226,-0.3152 -1.4767,-0.9542 -1.9993,-1.3175 z"
             style="fill:#241f1c;fill-rule:evenodd;stroke:#1b1918;stroke-width:0.216;stroke-linecap:butt;stroke-linejoin:miter;stroke-dasharray:none"
             id="path852" />
          <path
             d="m 521.0557,1111.602 c 0.1724,0.072 0.445,0.1939 0.8117,0.2786 0.3663,0.085 0.8268,0.1332 1.2601,0.1576 0.4329,0.024 0.8387,0.024 1.1902,0.01 0.3511,-0.018 0.6482,-0.055 0.9057,-0.097 0.2575,-0.043 0.4754,-0.091 0.7088,-0.1365 0.2331,-0.045 0.4817,-0.088 0.6634,-0.1151 0.1816,-0.027 0.2967,-0.039 0.3363,0.01 0.0392,0.048 0.003,0.1572 -0.2486,0.4118 -0.2516,0.2545 -0.7178,0.6544 -1.0904,0.9422 -0.3725,0.2879 -0.6514,0.4633 -0.9482,0.5876 -0.2967,0.1242 -0.6119,0.1968 -0.9238,0.1727 -0.3119,-0.024 -0.6208,-0.1454 -0.9993,-0.3603 -0.3788,-0.2153 -0.8272,-0.5243 -1.1602,-0.8058 -0.3333,-0.2819 -0.5516,-0.5361 -0.6877,-0.7056 -0.1362,-0.1698 -0.1909,-0.2548 -0.1998,-0.3185 -0.009,-0.064 0.0273,-0.1058 0.0817,-0.1147 0.0544,-0.01 0.1273,0.015 0.3001,0.088 z"
             style="fill:#241f1c;fill-rule:evenodd;stroke:#1b1918;stroke-width:0.216;stroke-linecap:butt;stroke-linejoin:miter;stroke-dasharray:none"
             id="path854" />
          <path
             d="m 526.1475,1114.6217 c 0.2483,-0.118 0.7995,-0.2394 1.4085,-0.3848 0.6086,-0.1454 1.2749,-0.3148 1.8628,-0.5479 0.5875,-0.2334 1.0962,-0.5305 1.5357,-0.7728 0.4391,-0.2424 0.8084,-0.43 1.1325,-0.5754 0.3241,-0.1453 0.603,-0.2485 0.7817,-0.3122 0.1787,-0.064 0.2575,-0.088 0.3304,-0.088 0.0725,0 0.1391,0.024 0.027,0.1817 -0.1121,0.1576 -0.4029,0.4484 -0.9782,0.8453 -0.5757,0.3967 -1.4362,0.8994 -2.2265,1.2872 -0.7906,0.3877 -1.5116,0.6604 -2.0688,0.7847 -0.5572,0.1239 -0.9512,0.1 -1.2479,0.064 -0.2967,-0.037 -0.4969,-0.085 -0.6238,-0.1668 -0.1273,-0.082 -0.182,-0.1969 0.0666,-0.3149 z"
             style="fill:#241f1c;fill-rule:evenodd;stroke:#1b1918;stroke-width:0.216;stroke-linecap:butt;stroke-linejoin:miter;stroke-dasharray:none"
             id="path856" />
          <path
             d="m 478.9338,1124.3303 c 0.8846,0.06 2.5443,0.048 3.4048,0 0.8602,-0.049 0.9205,-0.1335 0.8783,-0.3455 -0.0425,-0.212 -0.1879,-0.5513 -0.4724,-0.9087 -0.2849,-0.3574 -0.7092,-0.7329 -1.0666,-1.0903 -0.3574,-0.3574 -0.6478,-0.6966 -0.787,-1.0844 -0.1394,-0.3877 -0.1276,-0.8239 -0.2182,-1.2053 -0.091,-0.3818 -0.2849,-0.7089 -0.5028,-0.9693 -0.2183,-0.2605 -0.4606,-0.4544 -0.606,-0.6542 -0.1454,-0.2001 -0.1939,-0.4058 -0.1757,-0.6722 0.0181,-0.2667 0.1032,-0.5941 0.1879,-0.9937 0.0847,-0.3999 0.1695,-0.8727 0.0847,-1.2542 -0.085,-0.3818 -0.3392,-0.6722 -0.4846,-1.0052 -0.1454,-0.3334 -0.1817,-0.7092 -0.1392,-1.0181 0.0422,-0.309 0.1636,-0.5513 0.303,-0.7936 0.1392,-0.2424 0.2964,-0.4847 0.2664,-0.7451 -0.0303,-0.2605 -0.2486,-0.5391 -0.3455,-0.8236 -0.0969,-0.2849 -0.0725,-0.5757 0.0547,-0.818 0.127,-0.2423 0.3574,-0.4362 0.5572,-0.6604 0.1998,-0.2242 0.3696,-0.4784 0.4606,-0.7148 0.0907,-0.2364 0.1029,-0.4543 0.1091,-0.6722 0.006,-0.2183 0.006,-0.4365 0,-0.7029 -0.006,-0.2664 -0.0184,-0.5816 0.0848,-0.8906 0.1028,-0.3089 0.3208,-0.6115 0.5631,-0.8113 0.2423,-0.2002 0.509,-0.2971 0.7939,-0.491 0.2845,-0.1938 0.5872,-0.4846 0.7326,-0.7691 0.1454,-0.2849 0.1335,-0.5638 0.2064,-0.8121 0.0725,-0.2483 0.2298,-0.4665 0.448,-0.636 0.218,-0.1698 0.4969,-0.2908 0.7211,-0.3877 0.2239,-0.097 0.3936,-0.1698 0.5634,-0.2667 0.1695,-0.097 0.339,-0.218 0.424,-0.333 0.0848,-0.1154 0.0848,-0.2242 0.1758,-0.3818 0.0906,-0.1576 0.2723,-0.3633 0.6238,-0.5391 0.3511,-0.1757 0.8723,-0.3211 1.2845,-0.4543 0.4117,-0.1332 0.7144,-0.2545 0.8842,-0.4118 0.1695,-0.1576 0.2061,-0.3514 0.4243,-0.5209 0.218,-0.1698 0.6175,-0.3152 0.9327,-0.3759 0.3149,-0.061 0.545,-0.036 0.854,-0.048 0.3089,-0.012 0.6966,-0.061 0.9815,-0.1576 0.2845,-0.097 0.4665,-0.2423 0.6966,-0.3149 0.2301,-0.073 0.5087,-0.073 0.7814,-0.012 0.2727,0.061 0.539,0.1817 0.7876,0.2849 0.2483,0.1028 0.4784,0.1879 0.6601,0.1454 0.1817,-0.043 0.3152,-0.212 0.5575,-0.3393 0.2423,-0.1272 0.5935,-0.2123 0.9512,-0.1576 0.3574,0.054 0.7207,0.2483 1.0237,0.3818 0.303,0.1332 0.545,0.2057 0.8298,0.2242 0.2846,0.018 0.612,-0.018 0.9028,0.03 0.2908,0.048 0.545,0.182 0.7573,0.3881 0.212,0.2057 0.3814,0.4843 0.751,0.636 0.3696,0.1513 0.939,0.1753 1.4481,0.3148 0.5087,0.1395 0.9567,0.3937 1.2357,0.6967 0.2786,0.303 0.3874,0.6541 0.6116,0.8361 0.2241,0.1816 0.5634,0.1935 0.8967,0.3633 0.333,0.1695 0.6604,0.4969 0.8361,0.7573 0.1754,0.2605 0.1998,0.4543 0.2727,0.6907 0.0725,0.2361 0.1935,0.5147 0.4299,0.7086 0.2364,0.1938 0.5875,0.3029 0.7936,0.4546 0.2061,0.1513 0.2664,0.3452 0.3089,0.5453 0.0422,0.1998 0.0666,0.4056 0.1151,0.5753 0.0485,0.1695 0.121,0.3027 0.1939,0.3574 0.0725,0.054 0.1454,0.03 0.5693,0.018 0.424,-0.012 1.1995,-0.012 1.6963,-0.073 0.4966,-0.061 0.7148,-0.1817 0.8662,-0.3089 0.1513,-0.1273 0.2363,-0.2605 0.2726,-0.4177 0.0363,-0.1576 0.0244,-0.3396 -0.0241,-0.6182 -0.0484,-0.2786 -0.1335,-0.6541 -0.3089,-1.0175 -0.1757,-0.3636 -0.4424,-0.7151 -0.7148,-0.9996 -0.2726,-0.2849 -0.5515,-0.5031 -0.812,-0.7211 -0.2605,-0.2179 -0.5028,-0.4362 -0.636,-0.6904 -0.1332,-0.2545 -0.1576,-0.5453 -0.2727,-0.8298 -0.115,-0.2849 -0.3207,-0.5638 -0.569,-0.7636 -0.2486,-0.1998 -0.5394,-0.3211 -0.818,-0.4421 -0.2789,-0.1213 -0.5453,-0.2423 -0.7817,-0.3696 -0.2364,-0.1273 -0.4421,-0.2605 -0.6601,-0.4177 -0.2182,-0.1576 -0.4483,-0.3396 -0.5997,-0.5394 -0.1516,-0.1998 -0.2242,-0.4181 -0.3452,-0.6238 -0.1213,-0.2061 -0.2911,-0.3999 -0.5453,-0.509 -0.2545,-0.1092 -0.5938,-0.1332 -0.9571,-0.212 -0.3637,-0.079 -0.7514,-0.2124 -1.024,-0.3334 -0.2727,-0.1213 -0.43,-0.2301 -0.6298,-0.4362 -0.2001,-0.206 -0.4424,-0.5087 -0.6725,-0.6903 -0.2302,-0.182 -0.4484,-0.2424 -0.6967,-0.2483 -0.2483,-0.01 -0.5272,0.042 -0.8058,0.072 -0.2786,0.03 -0.5575,0.042 -0.842,-0.01 -0.2849,-0.048 -0.5757,-0.1573 -0.8846,-0.333 -0.3089,-0.1758 -0.636,-0.4181 -0.8843,-0.5513 -0.2485,-0.1332 -0.418,-0.1576 -0.6359,-0.085 -0.2183,0.072 -0.485,0.2423 -0.7574,0.3877 -0.2726,0.1451 -0.5512,0.2664 -0.842,0.2786 -0.2908,0.012 -0.5938,-0.085 -0.8724,-0.212 -0.2789,-0.1273 -0.5331,-0.2849 -0.9449,-0.2486 -0.4121,0.036 -0.9815,0.2667 -1.357,0.4547 -0.3756,0.1876 -0.5575,0.333 -0.8543,0.3814 -0.2967,0.049 -0.7088,0 -1.0296,-0.061 -0.3211,-0.061 -0.5516,-0.1332 -0.8787,-0.042 -0.327,0.091 -0.751,0.3452 -1.1206,0.6663 -0.3696,0.3211 -0.6845,0.7085 -1.0178,0.9268 -0.3333,0.2179 -0.6844,0.2664 -0.9934,0.2845 -0.3089,0.018 -0.5756,0.01 -0.8057,0.031 -0.2302,0.024 -0.424,0.084 -0.5935,0.2967 -0.1698,0.212 -0.3152,0.5753 -0.5331,0.9449 -0.2183,0.3696 -0.5091,0.7451 -0.8239,0.9752 -0.3152,0.2302 -0.6545,0.3152 -0.9756,0.4244 -0.3211,0.1088 -0.6238,0.2423 -0.8842,0.5875 -0.2605,0.3452 -0.4788,0.9027 -0.5998,1.2963 -0.1213,0.3937 -0.1454,0.6242 -0.3392,0.8606 -0.1939,0.236 -0.5575,0.478 -0.9449,0.7688 -0.3878,0.2908 -0.7999,0.6301 -0.9753,1.0178 -0.1757,0.3877 -0.1154,0.8239 -0.0972,1.2238 0.0181,0.3996 -0.006,0.7633 -0.0907,1.0785 -0.0851,0.3148 -0.2301,0.5812 -0.5087,0.8539 -0.279,0.2726 -0.6908,0.5512 -0.8968,0.9815 -0.2061,0.4299 -0.2061,1.0115 -0.1332,1.4477 0.0725,0.4362 0.2179,0.727 0.3149,0.9937 0.0969,0.2664 0.1453,0.5087 -0.006,0.848 -0.1516,0.3392 -0.5028,0.7754 -0.7026,1.145 -0.2001,0.3696 -0.2486,0.6723 -0.2545,0.9631 -0.006,0.2908 0.0303,0.5694 0.1698,0.8602 0.1391,0.2907 0.3815,0.5934 0.5028,0.9145 0.121,0.3212 0.121,0.6604 0.0666,1.121 -0.0547,0.4603 -0.1639,1.0418 -0.1335,1.5628 0.0303,0.5209 0.1998,0.9815 0.5512,1.4721 0.3515,0.4906 0.8846,1.0118 1.1876,1.4965 0.3026,0.4846 0.3755,0.9327 0.3574,1.2963 -0.0185,0.3634 -0.1273,0.642 -0.0788,0.8602 0.0484,0.2179 0.2542,0.3755 0.4118,0.5209 0.1576,0.1454 0.2664,0.2786 1.1509,0.3393 z"
             style="fill:#241f1c;fill-rule:evenodd;stroke:#1b1918;stroke-width:0.216;stroke-linecap:butt;stroke-linejoin:miter;stroke-dasharray:none"
             id="path858" />
          <path
             d="m 576.7201,1124.2828 c 0.7026,0 1.9386,0 2.6323,-0.01 0.6934,-0.01 0.845,-0.018 0.9298,-0.067 0.0847,-0.049 0.1032,-0.1332 0.1365,-0.239 0.0333,-0.1062 0.0817,-0.2335 0.209,-0.4728 0.1273,-0.2394 0.333,-0.5905 0.4391,-0.9387 0.1059,-0.3485 0.1121,-0.694 0.1454,-0.9907 0.0333,-0.2967 0.0937,-0.5453 0.1998,-0.7544 0.1059,-0.209 0.2575,-0.3785 0.4455,-0.5964 0.1876,-0.2182 0.4118,-0.485 0.633,-0.7758 0.2212,-0.2908 0.4391,-0.6056 0.5361,-0.8994 0.0969,-0.2941 0.0728,-0.5667 0.0455,-0.8908 -0.0274,-0.3241 -0.0577,-0.6996 -0.0607,-1.0541 -0.003,-0.3544 0.0211,-0.6874 0.1032,-1.0115 0.0818,-0.3244 0.2209,-0.6393 0.3726,-0.9057 0.1513,-0.2667 0.3148,-0.4849 0.3995,-0.7362 0.0848,-0.2515 0.091,-0.5361 -0.0392,-0.848 -0.1302,-0.3122 -0.3969,-0.6514 -0.5908,-1.0392 -0.1939,-0.3877 -0.3149,-0.8239 -0.3149,-1.269 0,-0.4454 0.121,-0.8997 0.1969,-1.3026 0.0758,-0.4029 0.1058,-0.7543 -0.0211,-1.1239 -0.1273,-0.3696 -0.4122,-0.757 -0.7148,-1.1236 -0.303,-0.3667 -0.6241,-0.7119 -0.8269,-1.0482 -0.2031,-0.3362 -0.2882,-0.6633 -0.3215,-1.0329 -0.0333,-0.3696 -0.0148,-0.7814 -0.1391,-1.148 -0.1243,-0.3666 -0.3907,-0.6874 -0.7359,-0.963 -0.3455,-0.2757 -0.7695,-0.5061 -1.0237,-0.7544 -0.2545,-0.2486 -0.3396,-0.515 -0.4546,-0.8542 -0.1151,-0.3393 -0.2605,-0.7514 -0.5269,-1.1451 -0.2667,-0.3936 -0.6544,-0.7695 -1.0844,-0.9785 -0.4302,-0.2091 -0.903,-0.2513 -1.2937,-0.424 -0.3907,-0.1728 -0.6996,-0.4754 -0.9205,-0.8117 -0.2212,-0.3363 -0.3548,-0.7059 -0.5819,-0.9753 -0.2272,-0.2697 -0.548,-0.4395 -0.8843,-0.5212 -0.3363,-0.082 -0.6874,-0.075 -1.0023,-0.079 -0.3152,0 -0.5941,-0.015 -0.8727,-0.209 -0.2786,-0.1939 -0.5575,-0.5697 -0.8209,-0.8272 -0.2634,-0.2575 -0.512,-0.3967 -0.7906,-0.4089 -0.2786,-0.012 -0.5876,0.1032 -0.9842,0.1395 -0.3969,0.036 -0.8816,-0.01 -1.2027,-0.1421 -0.3211,-0.1365 -0.4784,-0.367 -0.6963,-0.5305 -0.2183,-0.1635 -0.4972,-0.2604 -0.7362,-0.2756 -0.2394,-0.015 -0.4395,0.051 -0.7181,0.1939 -0.2786,0.1424 -0.636,0.3603 -1.0056,0.3939 -0.3696,0.033 -0.7511,-0.1183 -1.0511,-0.2545 -0.3,-0.1365 -0.5179,-0.2575 -0.7692,-0.3392 -0.2515,-0.082 -0.5364,-0.1243 -0.8905,0.075 -0.3544,0.1998 -0.7787,0.6422 -1.1997,0.8816 -0.4211,0.239 -0.8391,0.2756 -1.2994,0.2604 -0.4606,-0.015 -0.9634,-0.082 -1.333,0.048 -0.3695,0.1302 -0.6056,0.4576 -0.8176,0.6848 -0.2123,0.2271 -0.3999,0.3541 -0.606,0.4602 -0.206,0.1059 -0.4299,0.1909 -0.6027,0.2638 -0.1727,0.073 -0.2937,0.1329 -0.3422,0.2057 -0.0485,0.073 -0.0244,0.1576 0.2331,0.606 0.2575,0.4481 0.7484,1.2601 1.0573,1.7659 0.309,0.5057 0.4359,0.7059 0.5269,0.8572 0.091,0.1513 0.1454,0.2545 0.2456,0.3181 0.0999,0.063 0.2453,0.088 0.4332,-0.03 0.1876,-0.1184 0.4178,-0.3788 0.6146,-0.6089 0.1968,-0.2302 0.3607,-0.4303 0.721,-0.5361 0.3604,-0.1062 0.9179,-0.1181 1.4662,-0.2938 0.548,-0.1757 1.0874,-0.515 1.4751,-0.6937 0.3877,-0.1787 0.6238,-0.1971 0.8753,-0.1424 0.2513,0.054 0.518,0.1817 0.7422,0.2878 0.2238,0.1059 0.4058,0.1909 0.6089,0.182 0.2028,-0.01 0.427,-0.1124 0.633,-0.2093 0.2058,-0.097 0.3937,-0.1876 0.5754,-0.1969 0.1816,-0.01 0.3574,0.064 0.5997,0.2635 0.2423,0.1998 0.5512,0.5271 0.9815,0.5815 0.4299,0.054 0.9815,-0.1635 1.4358,-0.1605 0.4543,0 0.8117,0.2271 1.0237,0.4302 0.212,0.2028 0.2786,0.3848 0.427,0.5361 0.1484,0.1514 0.3788,0.2727 0.7787,0.3304 0.3996,0.057 0.9693,0.051 1.3116,0.2087 0.3422,0.1576 0.4573,0.4787 0.5028,0.7181 0.0451,0.2393 0.0211,0.3966 0.0969,0.6056 0.0755,0.209 0.2512,0.4695 0.5753,0.5786 0.3241,0.1088 0.7969,0.067 1.1421,0.1969 0.3452,0.1302 0.5634,0.4332 0.6178,0.724 0.0544,0.2908 -0.0544,0.5694 -0.0544,0.8602 0,0.2908 0.1088,0.5937 0.3027,0.7939 0.1939,0.1998 0.4728,0.2967 0.7547,0.418 0.2815,0.121 0.5661,0.2664 0.7662,0.4847 0.1998,0.2179 0.3149,0.5087 0.3149,0.8087 0,0.2997 -0.1151,0.6087 -0.0637,0.9357 0.0515,0.3271 0.2697,0.6726 0.4909,0.9393 0.2209,0.2664 0.4451,0.454 0.5935,0.6963 0.1484,0.2424 0.2212,0.5394 0.1972,0.8576 -0.0244,0.3178 -0.1458,0.6571 -0.1909,0.9904 -0.0455,0.333 -0.0155,0.6604 0.0481,0.8786 0.0636,0.218 0.1606,0.3268 0.2756,0.4936 0.1151,0.1665 0.2486,0.3907 0.3063,0.6966 0.0574,0.306 0.0393,0.6937 -0.1183,1.0844 -0.1576,0.3907 -0.4544,0.7847 -0.5635,1.1968 -0.1091,0.4118 -0.0303,0.8417 0.0214,1.1932 0.0515,0.3515 0.0755,0.6238 0.0515,0.9027 -0.0244,0.2786 -0.097,0.5631 -0.2302,0.7633 -0.1335,0.1998 -0.3274,0.3148 -0.4757,0.539 -0.1484,0.2242 -0.2516,0.5572 -0.2878,0.8299 -0.0363,0.2726 -0.006,0.4849 0.0122,0.6577 0.0181,0.1724 0.0244,0.3056 -0.0574,0.427 -0.0821,0.121 -0.2516,0.2301 -0.4758,0.4029 -0.2242,0.1727 -0.5028,0.4088 -0.7451,0.6907 -0.2423,0.2815 -0.4484,0.6086 -0.6271,0.9205 -0.1787,0.3119 -0.3303,0.6089 -0.4058,0.8087 -0.0759,0.1998 -0.0759,0.303 -0.0426,0.3848 0.0333,0.082 0.1003,0.1424 0.158,0.1728 0.0573,0.03 0.1058,0.03 0.2149,0.027 0.1088,0 0.2786,-0.01 0.9812,-0.012 z"
             style="fill:#241f1c;fill-rule:evenodd;stroke:#1b1918;stroke-width:0.216;stroke-linecap:butt;stroke-linejoin:miter;stroke-dasharray:none"
             id="path860" />
          <path
             d="m 549.8827,1124.1051 c 0.8025,0 2.214,0 2.9772,-0.012 0.7633,-0.015 0.8787,-0.046 0.9667,-0.091 0.0877,-0.045 0.148,-0.1058 0.1695,-0.1968 0.0211,-0.091 0.003,-0.212 -0.2124,-0.4876 -0.2149,-0.2757 -0.6271,-0.7059 -0.9723,-1.0267 -0.3451,-0.3211 -0.6241,-0.5335 -0.8117,-0.8727 -0.1879,-0.3393 -0.2845,-0.8055 -0.3541,-1.1991 -0.0699,-0.394 -0.1121,-0.7151 -0.2575,-0.9845 -0.1454,-0.2697 -0.3939,-0.488 -0.5878,-0.6393 -0.1939,-0.1513 -0.333,-0.2364 -0.3996,-0.4787 -0.0669,-0.2423 -0.0607,-0.6419 0,-1.0508 0.0603,-0.4091 0.1754,-0.8268 0.1784,-1.1813 0.003,-0.3544 -0.1059,-0.6452 -0.2542,-0.9389 -0.1487,-0.2938 -0.3363,-0.5909 -0.4122,-0.8906 -0.0758,-0.3 -0.0392,-0.6026 0.1032,-0.9478 0.1421,-0.3456 0.3907,-0.7333 0.4788,-1.1058 0.0877,-0.3726 0.0148,-0.73 -0.067,-1.0511 -0.0817,-0.3211 -0.1724,-0.6057 -0.1754,-0.8843 -0.003,-0.2789 0.0815,-0.5512 0.1695,-0.7451 0.0877,-0.1938 0.1784,-0.3092 0.3119,-0.4424 0.1332,-0.1332 0.3089,-0.2849 0.4059,-0.5754 0.0969,-0.2907 0.115,-0.721 0.1513,-1.0662 0.0362,-0.3452 0.091,-0.606 0.2031,-0.8331 0.1121,-0.2272 0.2815,-0.4211 0.5057,-0.6331 0.2242,-0.212 0.5028,-0.4421 0.6967,-0.6086 0.1938,-0.1665 0.303,-0.2697 0.3758,-0.4484 0.0726,-0.1787 0.1088,-0.4329 0.1695,-0.666 0.0603,-0.2334 0.1454,-0.4457 0.2786,-0.6181 0.1332,-0.1728 0.3152,-0.306 0.5212,-0.4333 0.2058,-0.1272 0.4359,-0.2482 0.6298,-0.3422 0.1938,-0.094 0.3511,-0.1606 0.4665,-0.2938 0.1151,-0.1332 0.1876,-0.3333 0.1787,-0.4938 -0.009,-0.1606 -0.0999,-0.2816 -0.3907,-0.6782 -0.2908,-0.397 -0.7817,-1.0696 -1.0844,-1.457 -0.303,-0.3877 -0.418,-0.4909 -0.5453,-0.5482 -0.1273,-0.058 -0.2664,-0.07 -0.3815,-0.033 -0.1154,0.036 -0.206,0.121 -0.2634,0.2482 -0.0577,0.1273 -0.0821,0.2967 -0.2545,0.3999 -0.1728,0.1029 -0.4939,0.1392 -0.7877,0.2028 -0.2937,0.064 -0.5604,0.1543 -0.7421,0.3422 -0.1817,0.188 -0.2786,0.4725 -0.3755,0.7877 -0.097,0.3148 -0.1939,0.6604 -0.2635,0.9149 -0.0699,0.2542 -0.1121,0.4177 -0.209,0.5661 -0.0969,0.1483 -0.2486,0.2819 -0.4635,0.4302 -0.215,0.1484 -0.4939,0.3119 -0.6908,0.4181 -0.1968,0.1058 -0.3119,0.1543 -0.4391,0.2816 -0.1273,0.1272 -0.2664,0.3329 -0.3511,0.5116 -0.0851,0.1787 -0.1151,0.3304 -0.1303,0.5727 -0.0151,0.2424 -0.0151,0.5753 -0.0151,0.9027 0,0.3271 0,0.6482 -0.0574,0.8602 -0.0577,0.212 -0.1731,0.3152 -0.3366,0.5183 -0.1636,0.2028 -0.3756,0.5054 -0.5813,0.754 -0.206,0.2483 -0.4062,0.4421 -0.5242,0.6604 -0.118,0.2179 -0.1546,0.4603 -0.1395,0.8239 0.0152,0.3633 0.0821,0.8477 0.1369,1.2235 0.0544,0.3756 0.0966,0.6419 0.0329,0.9116 -0.0636,0.2697 -0.2331,0.5421 -0.3936,0.8088 -0.1606,0.2664 -0.3123,0.5268 -0.394,0.845 -0.0818,0.3178 -0.0937,0.6937 -0.0119,1.0056 0.0818,0.3119 0.2572,0.5605 0.3844,0.7787 0.1273,0.218 0.2061,0.4056 0.2727,0.6086 0.0666,0.2028 0.1213,0.4211 0.1154,0.6845 -0.006,0.2634 -0.0729,0.5724 -0.1213,0.8875 -0.0485,0.3149 -0.0788,0.636 -0.0877,0.9209 -0.009,0.2845 0.003,0.5331 0.0844,0.7603 0.0817,0.2271 0.2334,0.4329 0.388,0.6056 0.1543,0.1728 0.3119,0.3119 0.5483,0.518 0.2361,0.206 0.5513,0.4784 0.73,0.7784 0.1787,0.2997 0.2209,0.6271 0.2393,1.0511 0.0182,0.424 0.0119,0.9449 0,1.3145 -0.0122,0.3696 -0.0306,0.5875 0.003,0.727 0.0333,0.1394 0.1183,0.1998 0.2063,0.2393 0.0877,0.039 0.1784,0.057 0.3208,0.07 0.1425,0.012 0.3363,0.018 1.1391,0.021 z"
             style="fill:#241f1c;fill-rule:evenodd;stroke:#1b1918;stroke-width:0.216;stroke-linecap:butt;stroke-linejoin:miter;stroke-dasharray:none"
             id="path862" />
          <path
             d="m 560.2761,1109.4128 c 0.1573,-0.1213 0.4844,-0.2183 0.7085,-0.2061 0.2242,0.012 0.3452,0.1332 0.4059,0.3152 0.0607,0.1817 0.0607,0.4237 0.1879,0.9146 0.1273,0.4906 0.3815,1.2295 0.5816,1.7566 0.1998,0.5272 0.3452,0.8421 0.3999,1.03 0.0544,0.1879 0.0178,0.2483 -0.0669,0.2423 -0.0847,-0.01 -0.2182,-0.079 -0.4058,-0.2119 -0.188,-0.1336 -0.4303,-0.3271 -0.6545,-0.6723 -0.2242,-0.3455 -0.4299,-0.842 -0.6175,-1.2601 -0.1879,-0.4181 -0.3577,-0.7573 -0.4665,-0.9934 -0.1092,-0.2364 -0.1576,-0.3699 -0.188,-0.509 -0.0303,-0.1395 -0.0422,-0.2849 0.1154,-0.4059 z"
             style="fill:#241f1c;fill-rule:evenodd;stroke:#1b1918;stroke-width:0.216;stroke-linecap:butt;stroke-linejoin:miter;stroke-dasharray:none"
             id="path864" />
        </g>
        <g
           id="Layer1021"
           style="fill:#241f1c">
          <path
             d="m 623.7412,1123.9264 4.5067,-0.1355 c 0.5812,-0.018 0.4493,0 0.0652,-0.4596 -1.6293,-1.9531 -2.6065,-2.9795 -2.6065,-7.8425 0,-5.2194 5.9048,-13.1879 13.1878,-13.1879 7.2831,0 13.1879,5.9049 13.1879,13.1879 0,3.1598 -1.1117,6.0598 -2.9646,8.3311 -0.3824,0.4682 -0.4916,0.4161 0.1312,0.4092 l 4.6619,-0.052 c 0.5576,-0.01 0.4389,0.043 0.7069,-0.4711 1.2865,-2.4563 2.0141,-5.2521 2.0141,-8.2174 0,-9.796 -7.9414,-17.7374 -17.7374,-17.7374 -9.7959,0 -17.7373,7.9414 -17.7373,17.7374 0,2.8707 0.6824,5.5828 1.8928,7.9813 0.2416,0.4794 0.2159,0.4705 0.6913,0.4563 z"
             style="fill:#241f1c;fill-rule:evenodd;stroke:#1b1918;stroke-width:0.216;stroke-linecap:butt;stroke-linejoin:miter;stroke-dasharray:none"
             id="path867" />
          <path
             d="m 640.5044,1106.5036 c -6.2709,-0.3828 -11.9634,5.8013 -9.3354,12.4549 0.2202,0.5579 0.4543,0.8662 0.6363,1.0419 0.1817,0.1757 0.3271,0.212 0.4484,0.1698 0.121,-0.043 0.2179,-0.1639 0.212,-0.3333 -0.006,-0.1695 -0.1151,-0.3878 -0.303,-0.9812 -1.3274,-4.1944 -0.0785,-7.9896 3.8103,-10.3291 1.3132,-0.79 3.1723,-1.2878 4.7071,-1.2117 0.6119,0.03 0.9752,0.1758 1.2904,0.2608 0.3149,0.085 0.5816,0.1088 0.6845,-0.01 0.1028,-0.1151 0.0425,-0.3693 -0.2967,-0.5935 -0.3393,-0.2242 -0.9575,-0.418 -1.8539,-0.4724 z"
             style="fill:#241f1c;fill-rule:evenodd;stroke:#1b1918;stroke-width:0.216;stroke-linecap:butt;stroke-linejoin:miter;stroke-dasharray:none"
             id="path869" />
          <path
             d="m 638.996,1110.4721 c -3.1358,-0.1915 -5.982,2.9007 -4.6679,6.2277 0.1102,0.2789 0.2272,0.4332 0.3182,0.5209 0.0907,0.088 0.1635,0.1062 0.2242,0.085 0.0603,-0.022 0.1088,-0.082 0.1058,-0.1669 -0.003,-0.085 -0.0573,-0.1938 -0.1513,-0.4906 -0.6637,-2.0972 -0.0392,-3.9949 1.905,-5.1647 0.6567,-0.3949 1.5865,-0.6439 2.3537,-0.6056 0.306,0.015 0.4876,0.088 0.6452,0.1302 0.1576,0.043 0.2908,0.054 0.3422,0 0.0515,-0.058 0.0215,-0.1846 -0.1483,-0.2967 -0.1695,-0.1121 -0.4787,-0.209 -0.9268,-0.2364 z"
             style="fill:#241f1c;fill-rule:evenodd;stroke:#1b1918;stroke-width:0.216;stroke-linecap:butt;stroke-linejoin:miter;stroke-dasharray:none"
             id="path871" />
          <path
             d="m 637.5704,1096.7228 c 1.2176,-0.1817 2.8047,-0.3637 4.1436,-0.7574 1.3386,-0.3936 2.4289,-0.9996 3.3072,-1.7022 0.8783,-0.7026 1.545,-1.5024 2.1144,-2.4836 0.5694,-0.9815 1.0418,-2.1447 1.3085,-3.3745 0.2664,-1.2297 0.3271,-2.5261 -0.0362,-3.9738 -0.3637,-1.448 -1.151,-3.0471 -1.9202,-4.2221 -0.7695,-1.1754 -1.5209,-1.9268 -2.8354,-2.9686 -1.3145,-1.0418 -3.1924,-2.3748 -4.9975,-3.3923 -1.8055,-1.0177 -3.538,-1.7207 -4.9132,-2.3082 -1.3752,-0.5875 -2.3929,-1.0603 -3.1987,-1.3873 -0.8058,-0.3271 -1.3993,-0.5088 -1.8536,-0.6601 -0.4543,-0.1517 -0.7695,-0.2727 -1.0299,-0.3818 -0.2605,-0.1091 -0.4662,-0.206 -0.5994,-0.2242 -0.1336,-0.018 -0.1939,0.042 -0.2242,0.1092 -0.0304,0.067 -0.0304,0.1391 0.0303,0.2301 0.0603,0.091 0.1817,0.1998 0.3515,0.3574 0.1694,0.1576 0.3874,0.3633 0.7873,0.6844 0.3999,0.3211 0.9812,0.7573 1.4417,1.1998 0.4603,0.4421 0.7996,0.8902 1.0419,1.3082 0.2423,0.4181 0.3877,0.8058 0.4606,1.1754 0.0725,0.3696 0.0725,0.7207 -0.0244,1.054 -0.097,0.333 -0.2908,0.6482 -0.6904,0.915 -0.3999,0.2664 -1.0059,0.4843 -1.8902,0.5812 -0.8845,0.097 -2.0477,0.073 -3.4773,0.037 -1.4299,-0.037 -3.1258,-0.085 -4.6583,-0.1213 -1.5327,-0.036 -2.902,-0.061 -4.2043,-0.049 -1.3023,0.012 -2.5383,0.061 -3.683,0.1698 -1.1451,0.1088 -2.1991,0.2786 -3.2772,0.5269 -1.0785,0.2482 -2.1813,0.5756 -3.0837,0.8967 -0.9027,0.3208 -1.6056,0.636 -2.2053,0.9509 -0.5997,0.3149 -1.0963,0.63 -1.4355,0.9086 -0.3393,0.2786 -0.5213,0.521 -0.6363,0.6967 -0.1151,0.1757 -0.1632,0.2848 -0.157,0.3758 0.006,0.091 0.0663,0.1636 0.1573,0.1998 0.0906,0.036 0.212,0.036 0.5209,-0.1454 0.3089,-0.1816 0.8055,-0.5453 1.569,-0.9571 0.7633,-0.4121 1.7929,-0.8723 2.817,-1.1994 1.0237,-0.3274 2.0411,-0.5209 3.356,-0.6967 1.3145,-0.1757 2.9257,-0.3333 4.5613,-0.418 1.6357,-0.085 3.2957,-0.097 4.9738,-0.079 1.6779,0.018 3.3742,0.067 5.0764,0.2604 1.7022,0.1939 3.4107,0.5332 4.8828,0.9209 1.4718,0.3877 2.7078,0.8239 3.8166,1.3996 1.1084,0.5753 2.0896,1.2901 2.7985,1.993 0.7088,0.7026 1.1447,1.393 1.5083,2.2716 0.3633,0.8783 0.6541,1.9442 0.7329,2.9501 0.0788,1.0056 -0.0544,1.9505 -0.4299,2.9017 -0.3755,0.9512 -0.9937,1.9083 -1.6659,2.7141 -0.6726,0.8054 -1.3993,1.4599 -1.9143,1.9201 -0.515,0.4603 -0.818,0.727 -1.3145,1.0663 -0.4968,0.3392 -1.1875,0.751 -1.7873,1.0721 -0.5997,0.3212 -1.1084,0.5513 -1.4658,0.7089 -0.3577,0.1573 -0.5635,0.2423 -0.7026,0.3271 -0.1394,0.085 -0.2123,0.1697 -0.206,0.2485 0.006,0.079 0.0906,0.1514 0.4602,0.1392 0.3696,-0.012 1.0237,-0.1092 1.969,-0.3271 0.9449,-0.2182 2.1806,-0.5575 3.2228,-0.818 1.0418,-0.2604 1.8898,-0.4421 3.1077,-0.6237 z"
             style="fill:#241f1c;fill-rule:evenodd;stroke:#1b1918;stroke-width:0.216;stroke-linecap:butt;stroke-linejoin:miter;stroke-dasharray:none"
             id="path873" />
          <path
             d="m 620.5669,1107.2757 c 0.4725,-0.9937 0.9571,-1.8661 1.5509,-2.6293 0.5935,-0.7633 1.2964,-1.4177 2.0355,-2.0234 0.7389,-0.6056 1.5143,-1.1632 2.0112,-1.5627 0.4965,-0.4 0.7148,-0.6423 0.8239,-0.8362 0.1088,-0.1938 0.1088,-0.3392 -0.0484,-0.3877 -0.1576,-0.048 -0.4728,0 -1.5872,0.6545 -1.1147,0.6541 -3.0293,1.9139 -4.5436,3.1862 -1.5146,1.2719 -2.629,2.5564 -3.5132,4.1799 -0.8846,1.6234 -1.5391,3.5864 -1.9146,5.0888 -0.3755,1.5021 -0.4724,2.5443 -0.4846,3.4408 -0.0122,0.8964 0.0606,1.6478 0.1213,2.2172 0.0603,0.5694 0.1088,0.9571 0.121,1.2116 0.0122,0.2542 -0.0122,0.3755 -0.1939,0.4484 -0.1816,0.072 -0.5209,0.097 -3.0774,0.2301 -2.5564,0.1332 -7.3298,0.3756 -9.8256,0.4847 -2.4961,0.1088 -2.7141,0.085 -4.9313,-1.3692 -2.2172,-1.454 -6.4337,-4.3375 -8.6143,-5.8518 -2.181,-1.5147 -2.3264,-1.6601 -2.3989,-1.6479 -0.0729,0.012 -0.0729,0.1817 -0.0244,0.4725 0.0485,0.2908 0.1454,0.7026 0.2305,1.3208 0.0847,0.6178 0.1572,1.4414 0.1454,2.1321 -0.0122,0.6907 -0.1092,1.2479 -0.1454,1.6356 -0.0366,0.3878 -0.0122,0.606 0.0122,0.7514 0.024,0.1451 0.0481,0.218 1.8898,1.1629 1.8417,0.9449 5.5007,2.7625 7.3786,3.6833 1.878,0.9209 1.9746,0.945 2.0959,0.9572 0.121,0.012 0.2664,0.012 3.9254,-0.1695 3.659,-0.182 10.8315,-0.5453 14.539,-0.7514 3.7074,-0.2061 3.9497,-0.2545 4.0226,-0.3999 0.0725,-0.1454 -0.0244,-0.3877 -0.2789,-1.0663 -0.2545,-0.6785 -0.6663,-1.7928 -0.9209,-3.1014 -0.2545,-1.3086 -0.3514,-2.8107 -0.2908,-4.2162 0.0607,-1.4055 0.2786,-2.7141 0.6179,-3.9257 0.3393,-1.2116 0.7998,-2.326 1.2723,-3.3194 z"
             style="fill:#241f1c;fill-rule:evenodd;stroke:#1b1918;stroke-width:0.216;stroke-linecap:butt;stroke-linejoin:miter;stroke-dasharray:none"
             id="path875" />
          <path
             d="m 605.0045,1110.8981 c 1.3574,-0.1306 12.1659,-3.5133 8.8082,-6.3546 -1.7494,-1.4803 -5.8327,-2.9132 -22.905,-3.986 -0.1398,-0.01 -0.1092,0.1025 0.006,0.1572 0.1151,0.054 0.3208,0.1029 1.1388,0.2483 6.4683,1.1503 18.3869,2.5789 12.5703,9.3172 -0.1454,0.1685 -0.0484,0.3878 0.0426,0.4969 0.0906,0.1088 0.212,0.1332 0.3392,0.121 z"
             style="fill:#241f1c;fill-rule:evenodd;stroke:#1b1918;stroke-width:0.216;stroke-linecap:butt;stroke-linejoin:miter;stroke-dasharray:none"
             id="path877" />
          <path
             d="m 608.5926,1087.7378 c 1.696,0.2242 4.8218,0.6485 7.772,1.1029 2.9501,0.4543 5.7248,0.9386 7.4515,1.2597 1.7263,0.3212 2.4048,0.4784 2.9442,0.5938 0.539,0.1151 0.9386,0.1876 1.2597,0.212 0.3212,0.024 0.5635,0 0.6786,-0.072 0.115,-0.073 0.1032,-0.1942 -1.4781,-0.7514 -1.5812,-0.5572 -4.7311,-1.5509 -7.2269,-2.326 -2.4962,-0.7755 -4.3375,-1.333 -5.9125,-1.8295 -1.5753,-0.4968 -2.8835,-0.933 -3.7741,-1.1994 -0.8905,-0.2668 -1.3633,-0.3637 -1.7144,-0.424 -0.3514,-0.061 -0.5816,-0.085 -0.7632,-0.043 -0.1817,0.043 -0.3152,0.1514 -0.4906,0.3452 -0.1757,0.1939 -0.394,0.4725 -0.606,0.7877 -0.212,0.3148 -0.4181,0.666 -0.515,0.9449 -0.0969,0.2786 -0.0847,0.4847 -0.0422,0.6604 0.0422,0.1757 0.1151,0.3208 0.2845,0.4058 0.1695,0.085 0.4362,0.1088 2.1325,0.333 z"
             style="fill:#241f1c;fill-rule:evenodd;stroke:#1b1918;stroke-width:0.216;stroke-linecap:butt;stroke-linejoin:miter;stroke-dasharray:none"
             id="path879" />
          <path
             d="m 596.4129,1088.3811 c 0.6057,-0.3937 1.0781,-0.9146 1.4781,-1.4355 0.3996,-0.521 0.727,-1.0422 1.0055,-1.4903 0.2786,-0.4484 0.5091,-0.8239 0.6486,-1.1328 0.1391,-0.3089 0.1876,-0.5513 0.1754,-0.6904 -0.0122,-0.1395 -0.0848,-0.176 -0.2058,-0.2001 -0.1213,-0.024 -0.2911,-0.036 -0.4665,0.097 -0.1757,0.1332 -0.3577,0.4118 -0.6,0.7389 -0.2424,0.327 -0.545,0.7029 -1.06,1.0965 -0.515,0.3937 -1.242,0.8058 -2.0537,1.0844 -0.8117,0.2786 -1.7085,0.424 -2.7444,0.4543 -1.0359,0.03 -2.211,-0.055 -3.3679,-0.2848 -1.1572,-0.2301 -2.296,-0.6057 -3.3622,-1.0659 -1.0663,-0.4606 -2.0596,-1.0056 -2.9198,-1.5265 -0.8605,-0.5213 -1.5872,-1.0178 -2.2716,-1.5206 -0.6848,-0.5028 -1.3267,-1.0118 -1.9083,-1.448 -0.5816,-0.4362 -1.1029,-0.7995 -1.5146,-1.0419 -0.4122,-0.2423 -0.7148,-0.3636 -0.9024,-0.424 -0.188,-0.061 -0.2608,-0.061 -0.2971,-0.043 -0.0363,0.018 -0.0363,0.055 -0.0119,0.1154 0.0241,0.06 0.0726,0.1451 0.5028,0.5872 0.43,0.4421 1.2417,1.242 2.1988,2.0781 0.9571,0.8358 2.0596,1.7081 3.0592,2.4899 0.9994,0.7813 1.8961,1.4717 2.7744,2.0414 0.8784,0.5694 1.7389,1.0175 2.6113,1.3933 0.8723,0.3756 1.7566,0.6782 2.9501,0.8418 1.1935,0.1635 2.6956,0.1879 3.8166,0.067 1.1206,-0.1213 1.8595,-0.3881 2.4654,-0.7817 z"
             style="fill:#241f1c;fill-rule:evenodd;stroke:#1b1918;stroke-width:0.216;stroke-linecap:butt;stroke-linejoin:miter;stroke-dasharray:none"
             id="path881" />
        </g>
      </g>
      <g
         id="Layer1022"
         style="fill:#241f1c">
        <g
           id="Layer1023"
           style="fill:#241f1c">
          <path
             d="m 491.9045,1139.0167 c 0.2987,-1.1569 0.5562,-2.2667 0.7734,-3.3303 0.2167,0.452 0.4405,0.9172 0.6713,1.3959 0.2301,0.4788 0.5018,1.0036 0.8137,1.5753 0.3119,0.5714 0.6577,1.2166 1.0376,1.9344 0.3794,0.7177 0.8133,1.5288 1.3016,2.4325 l 3.6619,6.7403 c 0.3525,0.6647 0.7119,1.1896 1.0782,1.5753 0.3659,0.3854 0.7388,0.6848 1.1186,0.8974 0.3798,0.2127 0.7867,0.3522 1.2206,0.4184 0.4338,0.067 0.9086,0.1 1.4239,0.1 0.5157,0 0.9901,-0.033 1.424,-0.1 0.4339,-0.066 0.841,-0.2057 1.2205,-0.4184 0.3798,-0.2126 0.7531,-0.512 1.119,-0.8974 0.366,-0.3857 0.7257,-0.9106 1.0781,-1.5753 l 3.662,-6.7004 c 0.9221,-1.7283 1.6679,-3.1572 2.2376,-4.2874 0.5694,-1.1296 1.0851,-2.1599 1.546,-3.0906 0.2169,1.09 0.4748,2.207 0.7731,3.3501 0.2984,1.1433 0.6647,2.4727 1.0986,3.988 l 2.563,9.2928 h 8.3813 l -6.8759,-23.4507 c -0.3798,-1.2499 -0.9966,-2.1737 -1.8512,-2.7718 -0.8543,-0.598 -1.8107,-0.8974 -2.8684,-0.8974 -1.112,0 -2.0408,0.2591 -2.7869,0.7778 -0.7458,0.5182 -1.3626,1.203 -1.8509,2.054 l -4.3537,7.5777 c -0.5967,1.0366 -1.1186,1.9406 -1.5664,2.7118 -0.4474,0.7708 -0.8407,1.4688 -1.18,2.0939 -0.3389,0.6248 -0.6373,1.183 -0.8948,1.6749 -0.2578,0.4919 -0.4952,0.9769 -0.7121,1.4556 -0.244,-0.4787 -0.4949,-0.9706 -0.7527,-1.4754 -0.2578,-0.5054 -0.5559,-1.0639 -0.8951,-1.6755 -0.339,-0.6113 -0.7323,-1.3093 -1.1797,-2.0933 -0.4477,-0.7843 -0.97,-1.6953 -1.5667,-2.7322 l -4.353,-7.5375 c -0.4883,-0.8777 -1.1055,-1.5687 -1.8516,-2.0742 -0.7458,-0.505 -1.6613,-0.7576 -2.746,-0.7576 -1.0577,0 -2.0208,0.2994 -2.8888,0.8974 -0.8678,0.5981 -1.4916,1.5219 -1.8717,2.7718 l -7.0384,23.4507 h 8.2592 l 2.5631,-9.2928 c 0.4072,-1.5153 0.7593,-2.8516 1.0577,-4.0078 z"
             style="fill:#241f1c;fill-rule:evenodd;stroke:#1b1918;stroke-width:0.216;stroke-linecap:butt;stroke-linejoin:miter;stroke-dasharray:none"
             id="path885" />
          <path
             d="m 531.4187,1138.9567 c 0,4.7859 1.6478,8.2823 4.9435,10.489 3.2953,2.2066 8.2793,3.3101 14.9518,3.3101 6.6453,0 11.6225,-1.1035 14.9316,-3.3101 3.3092,-2.2067 4.964,-5.7031 4.964,-10.489 0,-4.7592 -1.6614,-8.2425 -4.9844,-10.4488 -3.3227,-2.207 -8.2929,-3.3105 -14.9112,-3.3105 -6.6451,0 -11.6225,1.1035 -14.9314,3.3105 -3.3091,2.2063 -4.9639,5.6896 -4.9639,10.4488 z m 14.5252,6.6005 c -1.4649,-0.1727 -2.6518,-0.512 -3.5601,-1.0168 -0.9087,-0.5054 -1.5667,-1.2034 -1.9733,-2.0939 -0.4071,-0.8908 -0.6102,-2.0543 -0.6102,-3.4898 0,-1.4359 0.2031,-2.599 0.6102,-3.4895 0.4066,-0.8909 1.0646,-1.5823 1.9733,-2.0742 0.9083,-0.4916 2.0952,-0.8239 3.5601,-0.997 1.4641,-0.1727 3.2544,-0.2591 5.3701,-0.2591 2.1156,0 3.9059,0.086 5.3704,0.2591 1.4648,0.1731 2.6514,0.5054 3.5601,0.997 0.9086,0.4919 1.5667,1.1833 1.9732,2.0742 0.4069,0.8905 0.6103,2.0536 0.6103,3.4895 0,1.4355 -0.2034,2.599 -0.6103,3.4898 -0.4065,0.8905 -1.0646,1.5885 -1.9732,2.0939 -0.9087,0.5048 -2.0953,0.8441 -3.5601,1.0168 -1.4645,0.1728 -3.2548,0.2592 -5.3704,0.2592 -2.1157,0 -3.906,-0.086 -5.3701,-0.2592 z"
             style="fill:#241f1c;fill-rule:evenodd;stroke:#1b1918;stroke-width:0.216;stroke-linecap:butt;stroke-linejoin:miter;stroke-dasharray:none"
             id="path887" />
          <path
             d="m 585.0341,1132.5754 v 19.7419 h 8.4218 v -19.7419 h 9.7237 l 5.4519,-6.9395 h -30.921 l -5.4519,6.9395 z"
             style="fill:#241f1c;fill-rule:evenodd;stroke:#1b1918;stroke-width:0.216;stroke-linecap:butt;stroke-linejoin:miter;stroke-dasharray:none"
             id="path889" />
          <path
             d="m 609.4426,1138.9567 c 0,4.7859 1.6478,8.2823 4.9431,10.489 3.2957,2.2066 8.2797,3.3101 14.9521,3.3101 6.6454,0 11.6225,-1.1035 14.9317,-3.3101 3.3088,-2.2067 4.9636,-5.7031 4.9636,-10.489 0,-4.7592 -1.6613,-8.2425 -4.984,-10.4488 -3.3227,-2.207 -8.2932,-3.3105 -14.9113,-3.3105 -6.645,0 -11.6225,1.1035 -14.9313,3.3105 -3.3092,2.2063 -4.9639,5.6896 -4.9639,10.4488 z m 25.2657,6.6005 c -1.4645,0.1728 -3.2548,0.2592 -5.3705,0.2592 -2.1156,0 -3.9059,-0.086 -5.3704,-0.2592 -1.4648,-0.1727 -2.6514,-0.512 -3.5601,-1.0168 -0.9083,-0.5054 -1.5664,-1.2034 -1.9732,-2.0939 -0.4069,-0.8908 -0.6103,-2.0543 -0.6103,-3.4898 0,-1.4359 0.2034,-2.599 0.6103,-3.4895 0.4068,-0.8909 1.0649,-1.5823 1.9732,-2.0742 0.9087,-0.4916 2.0953,-0.8239 3.5601,-0.997 1.4645,-0.1727 3.2548,-0.2591 5.3704,-0.2591 2.1157,0 3.906,0.086 5.3705,0.2591 1.4648,0.1731 2.6514,0.5054 3.5601,0.997 0.9086,0.4919 1.5663,1.1833 1.9732,2.0742 0.4068,0.8905 0.6103,2.0536 0.6103,3.4895 0,1.4355 -0.2035,2.599 -0.6103,3.4898 -0.4069,0.8905 -1.0646,1.5885 -1.9732,2.0939 -0.9087,0.5048 -2.0953,0.8441 -3.5601,1.0168 z"
             style="fill:#241f1c;fill-rule:evenodd;stroke:#1b1918;stroke-width:0.216;stroke-linecap:butt;stroke-linejoin:miter;stroke-dasharray:none"
             id="path891" />
          <path
             d="m 656.6701,1145.4576 -5.411,6.8597 h 25.3468 c 2.0616,0 3.8317,-0.1998 5.3098,-0.5984 1.4783,-0.3989 2.692,-0.9706 3.6412,-1.7147 0.9492,-0.7445 1.6412,-1.6617 2.0751,-2.752 0.4338,-1.09 0.6508,-2.3132 0.6508,-3.6692 0,-2.446 -0.8678,-4.2739 -2.6036,-5.4835 -1.7359,-1.21 -4.2722,-1.815 -7.6085,-1.815 h -14.8096 c -0.9763,0 -1.7016,-0.1392 -2.1764,-0.4187 -0.4747,-0.2793 -0.7121,-0.7643 -0.7121,-1.4557 0,-0.691 0.2374,-1.1697 0.7121,-1.4355 0.4748,-0.266 1.2001,-0.3992 2.1764,-0.3992 h 18.8781 l 5.4113,-6.9395 h -23.6383 c -2.0616,0 -3.8311,0.1998 -5.3094,0.5984 -1.4784,0.3989 -2.6851,0.9571 -3.6208,1.6752 -0.936,0.7177 -1.6277,1.5888 -2.0751,2.6122 -0.4474,1.0234 -0.6712,2.1605 -0.6712,3.4097 0,1.1434 0.203,2.1872 0.6102,3.1312 0.4065,0.9436 1.0307,1.748 1.8714,2.4124 0.8407,0.665 1.8987,1.1836 3.1737,1.5555 1.2746,0.3722 2.7935,0.5585 4.5567,0.5585 h 14.8093 c 1.0036,0 1.7359,0.1464 2.1972,0.4388 0.4609,0.2924 0.6917,0.7844 0.6917,1.4754 0,0.6914 -0.2308,1.1899 -0.6917,1.4955 -0.4613,0.306 -1.1936,0.4589 -2.1972,0.4589 z"
             style="fill:#241f1c;fill-rule:evenodd;stroke:#1b1918;stroke-width:0.216;stroke-linecap:butt;stroke-linejoin:miter;stroke-dasharray:none"
             id="path893" />
          <path
             d="m 689.2511,1125.6359 17.0473,24.1289 c 0.5968,0.8506 1.3225,1.5621 2.1767,2.1335 0.8543,0.572 1.9192,0.8575 3.1938,0.8575 1.302,0 2.3867,-0.3056 3.2548,-0.9172 0.8681,-0.6116 1.6006,-1.3026 2.1971,-2.0738 l 17.4133,-24.1289 h -9.9272 l -12.7755,17.7077 -12.2463,-17.7077 z"
             style="fill:#241f1c;fill-rule:evenodd;stroke:#1b1918;stroke-width:0.216;stroke-linecap:butt;stroke-linejoin:miter;stroke-dasharray:none"
             id="path895" />
          <path
             d="m 768.3333,1145.4576 h -23.15 v -3.6293 h 16.7216 l 4.8419,-6.0624 h -21.5635 v -3.1905 h 17.617 l 5.4516,-6.9395 H 756.936 l -4.5795,6.2511 -4.5795,-6.2511 h -11.0564 v 26.6814 h 26.2017 z"
             style="fill:#241f1c;fill-rule:evenodd;stroke:#1b1918;stroke-width:0.216;stroke-linecap:butt;stroke-linejoin:miter;stroke-dasharray:none"
             id="path897" />
          <path
             d="m 767.8345,1132.5754 h 12.7754 v 19.7419 h 8.4218 v -19.7419 h 9.7238 l 5.4519,-6.9395 h -30.921 z"
             style="fill:#241f1c;fill-rule:evenodd;stroke:#1b1918;stroke-width:0.216;stroke-linecap:butt;stroke-linejoin:miter;stroke-dasharray:none"
             id="path899" />
        </g>
        <g
           id="Layer1024"
           style="fill:#241f1c">
          <path
             d="m 796.5402,1164.4657 h -12.8621 c -0.5506,0 -0.4322,-0.049 -0.7695,0.423 l -2.3036,3.2294 c -0.2882,0.4039 -0.306,0.33 0.1741,0.3313 l 5.3885,0.01 c 0.7181,0 1.3439,0 1.876,0 0.5318,0 0.9957,0 1.3913,-0.011 0.395,-0.01 0.726,-0.019 0.9918,-0.035 0.7398,-0.042 0.8925,-0.1682 0.1938,0.3442 -0.2083,0.1526 -0.4704,0.3554 -0.787,0.6076 -0.3161,0.2522 -0.6897,0.5582 -1.1213,0.9172 -0.4315,0.3594 -0.9492,0.7913 -1.5528,1.2961 l -5.262,4.4031 c -0.3017,0.2601 -0.5391,0.5542 -0.7115,0.8829 -0.1727,0.3287 -0.2588,0.669 -0.2588,1.0208 0,0.6267 0.2047,1.1045 0.6149,1.4332 0.4095,0.3287 0.8948,0.4932 1.4553,0.4932 h 12.8476 c 0.9924,0 0.7537,0.1055 1.3399,-0.7534 l 1.8865,-2.7609 c 0.3469,-0.5074 0.3973,-0.4302 -0.1909,-0.4302 h -4.7552 c -0.5608,0 -1.143,0 -1.7471,0.011 -0.604,0.01 -1.1714,0.015 -1.7035,0.023 -0.5318,0.01 -1.0029,0.015 -1.4124,0.023 -0.8764,0.017 -1.0989,0.2097 -0.3558,-0.3554 0.2012,-0.153 0.456,-0.3554 0.7653,-0.6076 0.3092,-0.2522 0.6795,-0.5542 1.111,-0.906 0.431,-0.3515 0.9413,-0.7798 1.5308,-1.2842 l 5.3266,-4.4951 c 0.302,-0.2446 0.5394,-0.5315 0.7115,-0.8602 0.1728,-0.3287 0.2591,-0.6689 0.2591,-1.0204 0,-0.6271 -0.205,-1.1048 -0.6145,-1.4335 -0.4098,-0.3287 -0.8951,-0.4929 -1.456,-0.4929 z"
             style="fill:#241f1c;fill-rule:evenodd;stroke:#1b1918;stroke-width:0.216;stroke-linecap:butt;stroke-linejoin:miter;stroke-dasharray:none"
             id="path902" />
          <path
             d="m 777.0232,1167.8171 1.8321,-2.5031 c 0.7833,-1.0702 0.7632,-0.845 -0.5569,-0.8483 h -9.125 c -1.2736,0 -2.4523,0.1797 -3.5354,0.5387 -1.083,0.3594 -2.0167,0.8717 -2.7997,1.5367 -0.7834,0.665 -1.3976,1.4603 -1.8444,2.3851 -0.4464,0.9251 -0.6696,1.9455 -0.6696,3.0619 0,1.116 0.2232,2.1519 0.6696,3.1074 0.4468,0.9558 1.061,1.7813 1.8444,2.477 0.783,0.6956 1.7167,1.2423 2.7997,1.6396 1.0831,0.3976 2.2618,0.5964 3.5354,0.5964 h 6.9345 c 0.4451,0 0.3808,0.085 0.6442,-0.271 l 2.27,-3.0652 c 0.5246,-0.7089 0.6073,-0.6083 -0.2459,-0.6083 h -9.6028 c -0.6149,0 -1.1859,-0.088 -1.7128,-0.2638 -0.5268,-0.176 -0.9845,-0.4243 -1.3725,-0.7454 -0.3881,-0.3211 -0.6881,-0.7072 -0.9004,-1.1582 -0.212,-0.4511 -0.3182,-0.9519 -0.3182,-1.5021 0,-0.5506 0.1098,-1.0551 0.3294,-1.5137 0.2196,-0.4586 0.5196,-0.8526 0.9004,-1.1813 0.3808,-0.3287 0.8345,-0.5849 1.3613,-0.7682 0.5265,-0.1833 1.0982,-0.2756 1.7128,-0.2753 h 6.2359 c 1.088,3e-4 0.9789,0.2258 1.6139,-0.6416 z"
             style="fill:#241f1c;fill-rule:evenodd;stroke:#1b1918;stroke-width:0.216;stroke-linecap:butt;stroke-linejoin:miter;stroke-dasharray:none"
             id="path904" />
          <path
             d="m 757.0962,1175.68 c -0.4948,-0.3897 -1.1077,-0.5849 -1.8387,-0.5849 -0.7151,0 -1.3207,0.1952 -1.8153,0.5849 -0.4949,0.3901 -0.7418,0.9443 -0.7418,1.6627 0,0.7036 0.2469,1.2462 0.7418,1.6284 0.4946,0.3821 1.1002,0.5733 1.8153,0.5733 0.731,0 1.3439,-0.1912 1.8387,-0.5733 0.4946,-0.3822 0.7422,-0.9248 0.7422,-1.6284 0,-0.7184 -0.2476,-1.2726 -0.7422,-1.6627 z"
             style="fill:#241f1c;fill-rule:evenodd;stroke:#1b1918;stroke-width:0.216;stroke-linecap:butt;stroke-linejoin:miter;stroke-dasharray:none"
             id="path906" />
          <path
             d="m 742.8325,1168.456 h 4.421 c 0.8489,0 0.6775,0.1352 1.1859,-0.5618 l 1.8839,-2.5802 c 0.7019,-0.9611 0.8516,-0.8483 -0.2823,-0.8483 h -14.5211 c -1.247,0 -0.9727,-0.178 -1.7247,0.8523 l -1.8024,2.4681 c -0.5694,0.78 -0.6604,0.6699 0.267,0.6699 h 6.0717 v 10.7185 c 0,0.7227 -0.1292,0.634 0.5348,0.634 h 3.535 c 0.5456,0 0.4312,0.061 0.4312,-0.543 z"
             style="fill:#241f1c;fill-rule:evenodd;stroke:#1b1918;stroke-width:0.216;stroke-linecap:butt;stroke-linejoin:miter;stroke-dasharray:none"
             id="path908" />
          <path
             d="m 726.9326,1168.456 c 0.8717,0 0.6597,0.084 1.1951,-0.6597 l 1.9106,-2.6537 c 0.5433,-0.7541 0.6752,-0.6769 -0.1975,-0.6769 h -15.1301 c -0.9796,0 -0.8042,-0.151 -0.8042,0.9119 v 13.813 c 0,0.788 -0.0715,0.6179 0.7135,0.6179 4.0447,0 8.0895,0 12.1342,0 1.0995,0 0.8523,0.1526 1.5189,-0.7692 l 1.7662,-2.443 c 0.665,-0.9199 0.6597,-0.7323 -0.4491,-0.7323 h -11.2229 v -2.0873 h 8.0602 c 0.8938,0 0.6795,0.1005 1.2304,-0.6518 l 1.7279,-2.3607 c 0.3884,-0.5304 0.4778,-0.4734 -0.1417,-0.4734 h -10.8768 v -1.8348 z"
             style="fill:#241f1c;fill-rule:evenodd;stroke:#1b1918;stroke-width:0.216;stroke-linecap:butt;stroke-linejoin:miter;stroke-dasharray:none"
             id="path910" />
          <path
             d="m 702.3259,1178.3407 8.5082,-13.0943 c 0.6419,-0.9881 0.6324,-0.7807 -0.5107,-0.7807 h -3.0893 c -1.2021,0 -0.9268,-0.1635 -1.6175,0.9007 l -6.0288,9.282 -5.866,-9.4211 c -0.608,-0.9766 -0.4177,-0.7616 -1.5357,-0.7616 h -3.2713 c -1.1754,0 -1.1427,-0.1972 -0.4863,0.8351 l 8.2945,13.0399 c 0.309,0.4893 0.6848,0.8984 1.1273,1.2271 0.4421,0.3287 0.9934,0.4929 1.6531,0.4929 0.6739,0 1.2357,-0.1757 1.6851,-0.5275 0.4493,-0.3515 0.8285,-0.7491 1.1374,-1.1925 z"
             style="fill:#241f1c;fill-rule:evenodd;stroke:#1b1918;stroke-width:0.216;stroke-linecap:butt;stroke-linejoin:miter;stroke-dasharray:none"
             id="path912" />
          <path
             d="m 685.7435,1174.7859 c 0,-1.4065 -0.4527,-2.4576 -1.3587,-3.1532 -0.9057,-0.696 -2.2294,-1.0439 -3.9699,-1.0439 h -7.7281 c -0.5097,0 -0.8879,-0.08 -1.1358,-0.2406 -0.2476,-0.1606 -0.3716,-0.4395 -0.3716,-0.8371 0,-0.3977 0.124,-0.6726 0.3716,-0.8256 0.2479,-0.153 0.6261,-0.2295 1.1358,-0.2295 h 9.3103 c 0.5888,0 0.4711,0.098 0.8223,-0.3979 l 1.93,-2.7276 c 0.732,-1.0343 0.8101,-0.8648 -0.3983,-0.8648 h -11.3244 c -1.0755,0 -1.9993,0.1144 -2.7708,0.3439 -0.7711,0.2294 -1.4012,0.5506 -1.8895,0.9633 -0.4886,0.4128 -0.8493,0.9136 -1.0824,1.5021 -0.2337,0.5886 -0.3508,1.2423 -0.3508,1.9608 0,0.6574 0.1065,1.2578 0.3185,1.8004 0.2123,0.5427 0.5384,1.0053 0.9766,1.3874 0.4388,0.3825 0.9911,0.6805 1.6561,0.8945 0.665,0.2139 1.4575,0.3211 2.3777,0.3211 h 7.7281 c 0.5236,0 0.9057,0.084 1.1464,0.2522 0.2407,0.1682 0.3607,0.451 0.3607,0.8487 0,0.3976 -0.12,0.6841 -0.3607,0.8601 -0.2407,0.1758 -0.6228,0.2638 -1.1464,0.2638 h -9.7788 c -0.9914,-0.037 -0.8542,-0.2367 -1.4385,0.5789 l -1.9475,2.721 c -0.5618,0.7847 -0.4833,0.6446 0.4606,0.6446 h 12.3643 c 1.0755,0 1.999,-0.1147 2.7708,-0.3439 0.7712,-0.2294 1.4045,-0.5582 1.8997,-0.9864 0.4956,-0.428 0.8566,-0.9555 1.0831,-1.5823 0.2265,-0.627 0.3396,-1.3303 0.3396,-2.11 z"
             style="fill:#241f1c;fill-rule:evenodd;stroke:#1b1918;stroke-width:0.216;stroke-linecap:butt;stroke-linejoin:miter;stroke-dasharray:none"
             id="path914" />
          <path
             d="m 656.591,1175.921 c -0.7748,0.1 -1.7221,0.1494 -2.8414,0.1494 -1.1196,0 -2.0668,-0.05 -2.8416,-0.1494 -0.7752,-0.099 -1.4029,-0.2941 -1.8839,-0.5845 -0.4807,-0.2908 -0.8286,-0.6921 -1.0438,-1.2041 -0.2153,-0.5123 -0.3232,-1.1813 -0.3232,-2.0068 0,-0.8256 0.1079,-1.4946 0.3232,-2.0069 0.2152,-0.512 0.5631,-0.9096 1.0438,-1.1925 0.481,-0.2829 1.1087,-0.4738 1.8839,-0.5734 0.7748,-0.099 1.722,-0.149 2.8416,-0.149 1.1193,0 2.0666,0.05 2.8414,0.149 0.7751,0.1 1.4028,0.2905 1.8838,0.5734 0.4807,0.2829 0.8286,0.6805 1.0439,1.1925 0.2153,0.5123 0.3231,1.1813 0.3231,2.0069 0,0.8255 -0.1078,1.4945 -0.3231,2.0068 -0.2153,0.512 -0.5632,0.9133 -1.0439,1.2041 -0.481,0.2904 -1.1087,0.4853 -1.8838,0.5845 z m 5.0588,2.2364 c 1.7511,-1.269 2.6264,-3.2799 2.6264,-6.0318 0,-2.7369 -0.879,-4.7398 -2.6372,-6.0088 -1.758,-1.269 -4.388,-1.9033 -7.8894,-1.9033 -3.5162,0 -6.1498,0.6343 -7.9005,1.9033 -1.751,1.269 -2.6264,3.2719 -2.6264,6.0088 0,2.7519 0.8717,4.7628 2.6155,6.0318 1.7438,1.269 4.3807,1.9033 7.9114,1.9033 3.5159,0 6.1495,-0.6343 7.9002,-1.9033 z"
             style="fill:#241f1c;fill-rule:evenodd;stroke:#1b1918;stroke-width:0.216;stroke-linecap:butt;stroke-linejoin:miter;stroke-dasharray:none"
             id="path916" />
          <path
             d="M 633.5517,1179.2694 V 1168.46 h 4.4209 c 0.849,0 0.6775,0.1352 1.1859,-0.5618 l 1.8839,-2.5802 c 0.702,-0.9611 0.8516,-0.8484 -0.2822,-0.8484 H 626.239 c -1.2469,0 -0.9726,-0.178 -1.7246,0.8523 l -1.8025,2.4681 c -0.5694,0.7801 -0.6604,0.67 0.2671,0.67 h 6.0717 v 10.7184 c 0,0.7227 -0.1293,0.6341 0.5347,0.6341 h 3.5351 c 0.5456,0 0.4312,0.061 0.4312,-0.5431 z"
             style="fill:#241f1c;fill-rule:evenodd;stroke:#1b1918;stroke-width:0.216;stroke-linecap:butt;stroke-linejoin:miter;stroke-dasharray:none"
             id="path918" />
          <path
             d="m 617.8644,1178.1574 c 1.751,-1.269 2.6263,-3.2799 2.6263,-6.0318 0,-2.7369 -0.8789,-4.7398 -2.6372,-6.0088 -1.758,-1.269 -4.388,-1.9033 -7.8893,-1.9033 -3.5163,0 -6.1499,0.6343 -7.9006,1.9033 -1.751,1.269 -2.6263,3.2719 -2.6263,6.0088 0,2.7519 0.8717,4.7628 2.6154,6.0318 1.7438,1.269 4.3807,1.9033 7.9115,1.9033 3.5159,0 6.1495,-0.6343 7.9002,-1.9033 z m -2.1312,-4.025 c -0.2153,0.512 -0.5631,0.9133 -1.0438,1.2041 -0.481,0.2904 -1.1088,0.4853 -1.8839,0.5845 -0.7748,0.1 -1.722,0.1494 -2.8413,0.1494 -1.1197,0 -2.0669,-0.05 -2.8417,-0.1494 -0.7751,-0.099 -1.4029,-0.2941 -1.8839,-0.5845 -0.4807,-0.2908 -0.8285,-0.6921 -1.0438,-1.2041 -0.2153,-0.5123 -0.3231,-1.1813 -0.3231,-2.0068 0,-0.8256 0.1078,-1.4946 0.3231,-2.0069 0.2153,-0.512 0.5631,-0.9096 1.0438,-1.1925 0.481,-0.2829 1.1088,-0.4738 1.8839,-0.5734 0.7748,-0.099 1.722,-0.149 2.8417,-0.149 1.1193,0 2.0665,0.05 2.8413,0.149 0.7751,0.1 1.4029,0.2905 1.8839,0.5734 0.4807,0.2829 0.8285,0.6805 1.0438,1.1925 0.2153,0.5123 0.3231,1.1813 0.3231,2.0069 0,0.8255 -0.1078,1.4945 -0.3231,2.0068 z"
             style="fill:#241f1c;fill-rule:evenodd;stroke:#1b1918;stroke-width:0.216;stroke-linecap:butt;stroke-linejoin:miter;stroke-dasharray:none"
             id="path920" />
          <path
             d="m 575.6585,1179.8085 1.3485,-5.3437 c 0.2143,-0.8714 0.3995,-1.6396 0.5568,-2.305 0.1569,-0.665 0.2925,-1.3033 0.4065,-1.9148 0.1144,0.2598 0.2318,0.5275 0.3535,0.8028 0.1213,0.2749 0.264,0.5769 0.4279,0.9057 0.1642,0.3287 0.3462,0.6996 0.546,1.1124 0.1998,0.4127 0.4279,0.8793 0.6848,1.3989 l 1.9267,3.8759 c 0.1856,0.3821 0.3746,0.6841 0.5671,0.906 0.1929,0.2215 0.389,0.3936 0.5888,0.516 0.1998,0.1223 0.4138,0.2024 0.6423,0.2406 0.2285,0.038 0.4781,0.057 0.7494,0.057 0.271,0 0.5206,-0.019 0.7491,-0.057 0.2281,-0.038 0.4424,-0.1183 0.6419,-0.2406 0.2004,-0.1224 0.3963,-0.2945 0.5888,-0.516 0.1926,-0.2219 0.3818,-0.5239 0.5674,-0.906 l 1.9268,-3.8529 c 0.485,-0.9937 0.8776,-1.8156 1.177,-2.4654 0.2997,-0.6499 0.571,-1.2423 0.8134,-1.7774 0.1144,0.6267 0.2502,1.269 0.4071,1.9264 0.1567,0.6574 0.3495,1.422 0.578,2.2934 l 1.3481,5.3437 h 4.4101 l -3.6178,-13.4853 c -0.1998,-0.7184 -0.5245,-1.2499 -0.9743,-1.5937 -0.4493,-0.3443 -0.9521,-0.516 -1.509,-0.516 -0.5849,0 -1.0738,0.149 -1.4661,0.447 -0.3924,0.2981 -0.7175,0.6917 -0.974,1.181 l -2.2904,4.3576 c -0.3142,0.5965 -0.5888,1.1161 -0.8242,1.5595 -0.2358,0.4434 -0.4428,0.8447 -0.6208,1.2041 -0.1787,0.3593 -0.3357,0.6805 -0.4712,0.9633 -0.1355,0.2829 -0.2604,0.5618 -0.3745,0.8371 -0.1283,-0.2753 -0.2605,-0.5581 -0.396,-0.8486 -0.1355,-0.2905 -0.2924,-0.6116 -0.4711,-0.9634 -0.1784,-0.3514 -0.3851,-0.753 -0.6205,-1.204 -0.2357,-0.4511 -0.5104,-0.9746 -0.8243,-1.571 l -2.2907,-4.3346 c -0.2568,-0.5044 -0.5812,-0.902 -0.9739,-1.1925 -0.3924,-0.2905 -0.874,-0.4355 -1.4451,-0.4355 -0.5562,0 -1.0629,0.1717 -1.5199,0.516 -0.4563,0.3438 -0.7847,0.8753 -0.9845,1.5937 l -3.7035,13.4853 z"
             style="fill:#241f1c;fill-rule:evenodd;stroke:#1b1918;stroke-width:0.216;stroke-linecap:butt;stroke-linejoin:miter;stroke-dasharray:none"
             id="path922" />
          <path
             d="m 569.2647,1177.466 c 0,-0.7184 -0.2476,-1.2726 -0.7422,-1.6627 -0.4949,-0.3897 -1.1078,-0.5849 -1.8384,-0.5849 -0.7154,0 -1.3207,0.1952 -1.8156,0.5849 -0.4949,0.3901 -0.7418,0.9443 -0.7418,1.6627 0,0.7036 0.2469,1.2463 0.7418,1.6284 0.4949,0.3821 1.1002,0.5733 1.8156,0.5733 0.7306,0 1.3435,-0.1912 1.8384,-0.5733 0.4946,-0.3821 0.7422,-0.9248 0.7422,-1.6284 z"
             style="fill:#241f1c;fill-rule:evenodd;stroke:#1b1918;stroke-width:0.216;stroke-linecap:butt;stroke-linejoin:miter;stroke-dasharray:none"
             id="path924" />
          <path
             d="m 557.806,1177.951 3.3475,-12.6053 c 0.241,-0.9074 0.4315,-0.88 -0.3499,-0.88 h -2.9257 c -0.847,0 -0.6498,-0.09 -0.8793,0.8496 l -1.0966,4.4938 c -0.207,0.8562 -0.39,1.6208 -0.5486,2.2937 -0.1586,0.6726 -0.2934,1.3148 -0.4039,1.9264 -0.1101,-0.2601 -0.2242,-0.5275 -0.3412,-0.8028 -0.1174,-0.2753 -0.2519,-0.5773 -0.4039,-0.906 -0.1516,-0.3287 -0.3244,-0.6957 -0.5173,-1.1009 -0.1932,-0.4052 -0.421,-0.8753 -0.6831,-1.4104 l -1.8424,-3.8756 c -0.179,-0.3824 -0.3623,-0.6844 -0.5486,-0.906 -0.1863,-0.2216 -0.3791,-0.3937 -0.5793,-0.516 -0.2004,-0.1223 -0.4108,-0.2027 -0.6317,-0.241 -0.2205,-0.038 -0.4619,-0.057 -0.7243,-0.057 -0.2483,0 -0.4827,0.019 -0.7036,0.057 -0.2209,0.038 -0.4312,0.1187 -0.6313,0.241 -0.2002,0.1223 -0.3901,0.2944 -0.5691,0.516 -0.1794,0.2216 -0.359,0.5236 -0.5384,0.906 l -1.8628,3.8529 c -0.483,0.9937 -0.8727,1.8156 -1.1694,2.4654 -0.2968,0.6499 -0.5556,1.2423 -0.7765,1.7774 -0.1101,-0.6271 -0.238,-1.269 -0.3827,-1.9264 -0.1451,-0.6577 -0.3278,-1.422 -0.5487,-2.2937 l -1.0893,-4.4628 c -0.2443,-1.0009 -0.0405,-0.8806 -0.9561,-0.8806 h -2.9623 c -0.7695,0 -0.5922,-0.042 -0.3604,0.846 l 3.2983,12.6393 c 0.1929,0.7184 0.5071,1.2499 0.9419,1.5937 0.4343,0.3439 0.9209,0.516 1.4593,0.516 0.5658,0 1.0382,-0.149 1.4177,-0.4471 0.3795,-0.2983 0.6937,-0.692 0.9419,-1.1813 l 2.2146,-4.3572 c 0.3037,-0.5965 0.5658,-1.1164 0.7867,-1.5595 0.2209,-0.4435 0.4174,-0.845 0.5901,-1.2041 0.1721,-0.3593 0.3241,-0.6844 0.4553,-0.9749 0.1309,-0.2904 0.2519,-0.5733 0.362,-0.8483 0.1243,0.275 0.2519,0.5579 0.3832,0.8483 0.1312,0.2905 0.2861,0.6156 0.4655,0.9749 0.1793,0.3591 0.3795,0.7643 0.6,1.2153 0.2209,0.451 0.4834,0.9749 0.787,1.571 l 2.2146,4.3345 c 0.2624,0.5048 0.5832,0.9021 0.9627,1.1929 0.3795,0.2904 0.8454,0.4355 1.3973,0.4355 0.538,0 1.0247,-0.1721 1.4592,-0.516 0.4349,-0.3438 0.7488,-0.8753 0.9416,-1.5937 z"
             style="fill:#241f1c;fill-rule:evenodd;stroke:#1b1918;stroke-width:0.216;stroke-linecap:butt;stroke-linejoin:miter;stroke-dasharray:none"
             id="path926" />
          <path
             d="m 516.5919,1178.4323 2.2146,-4.3572 c 0.3036,-0.5965 0.5657,-1.1164 0.7866,-1.5595 0.2209,-0.4435 0.4174,-0.845 0.5902,-1.2041 0.1721,-0.3593 0.3241,-0.6844 0.4553,-0.9749 0.1309,-0.2904 0.2519,-0.5733 0.362,-0.8483 0.1243,0.275 0.2519,0.5579 0.3831,0.8483 0.1312,0.2905 0.2862,0.6156 0.4655,0.9749 0.1794,0.3591 0.3795,0.7643 0.6001,1.2153 0.2209,0.451 0.4833,0.9749 0.787,1.571 l 2.2145,4.3345 c 0.2625,0.5048 0.5833,0.9021 0.9628,1.1929 0.3794,0.2904 0.8453,0.4355 1.3972,0.4355 0.5381,0 1.0247,-0.1721 1.4593,-0.516 0.4348,-0.3438 0.7487,-0.8753 0.9416,-1.5937 l 3.3474,-12.6053 c 0.241,-0.9074 0.4316,-0.88 -0.3498,-0.88 h -2.9257 c -0.847,0 -0.6499,-0.09 -0.8793,0.8496 l -1.0966,4.4938 c -0.2071,0.8562 -0.3901,1.6208 -0.5486,2.2937 -0.1586,0.6726 -0.2935,1.3148 -0.4039,1.9264 -0.1101,-0.2601 -0.2242,-0.5275 -0.3413,-0.8028 -0.1173,-0.2753 -0.2518,-0.5773 -0.4038,-0.906 -0.1517,-0.3287 -0.3245,-0.6957 -0.5173,-1.1009 -0.1932,-0.4052 -0.4211,-0.8753 -0.6832,-1.4104 l -1.8423,-3.8756 c -0.179,-0.3824 -0.3623,-0.6844 -0.5486,-0.906 -0.1863,-0.2216 -0.3792,-0.3937 -0.5793,-0.516 -0.2005,-0.1223 -0.4108,-0.2027 -0.6317,-0.241 -0.2206,-0.038 -0.4619,-0.057 -0.7244,-0.057 -0.2482,0 -0.4826,0.019 -0.7035,0.057 -0.2209,0.038 -0.4313,0.1187 -0.6314,0.241 -0.2001,0.1223 -0.39,0.2944 -0.5691,0.516 -0.1793,0.2216 -0.359,0.5236 -0.5384,0.906 l -1.8627,3.8529 c -0.483,0.9937 -0.8727,1.8156 -1.1695,2.4654 -0.2967,0.6499 -0.5555,1.2423 -0.7764,1.7774 -0.1101,-0.6271 -0.2381,-1.269 -0.3828,-1.9264 -0.1451,-0.6577 -0.3277,-1.422 -0.5486,-2.2937 l -1.0893,-4.4628 c -0.2443,-1.0009 -0.0406,-0.8806 -0.9562,-0.8806 h -2.9623 c -0.7695,0 -0.5921,-0.042 -0.3603,0.846 l 3.2982,12.6393 c 0.1929,0.7184 0.5071,1.2499 0.942,1.5937 0.4342,0.3439 0.9208,0.516 1.4592,0.516 0.5658,0 1.0383,-0.149 1.4177,-0.4471 0.3795,-0.2983 0.6937,-0.692 0.942,-1.1813 z"
             style="fill:#241f1c;fill-rule:evenodd;stroke:#1b1918;stroke-width:0.216;stroke-linecap:butt;stroke-linejoin:miter;stroke-dasharray:none"
             id="path928" />
          <path
             d="m 502.6173,1177.951 3.3474,-12.6053 c 0.2411,-0.9074 0.4316,-0.88 -0.3498,-0.88 h -2.9257 c -0.847,0 -0.6498,-0.09 -0.8793,0.8496 l -1.0966,4.4938 c -0.207,0.8562 -0.39,1.6208 -0.5486,2.2937 -0.1586,0.6726 -0.2934,1.3148 -0.4039,1.9264 -0.1101,-0.2601 -0.2242,-0.5275 -0.3412,-0.8028 -0.1174,-0.2753 -0.2519,-0.5773 -0.4039,-0.906 -0.1516,-0.3287 -0.3244,-0.6957 -0.5173,-1.1009 -0.1932,-0.4052 -0.421,-0.8753 -0.6831,-1.4104 l -1.8424,-3.8756 c -0.179,-0.3824 -0.3623,-0.6844 -0.5486,-0.906 -0.1863,-0.2216 -0.3791,-0.3937 -0.5793,-0.516 -0.2004,-0.1223 -0.4108,-0.2027 -0.6317,-0.241 -0.2205,-0.038 -0.4619,-0.057 -0.7243,-0.057 -0.2483,0 -0.4827,0.019 -0.7036,0.057 -0.2209,0.038 -0.4312,0.1187 -0.6314,0.241 -0.2001,0.1223 -0.39,0.2944 -0.569,0.516 -0.1794,0.2216 -0.359,0.5236 -0.5384,0.906 l -1.8628,3.8529 c -0.483,0.9937 -0.8727,1.8156 -1.1694,2.4654 -0.2968,0.6499 -0.5556,1.2423 -0.7765,1.7774 -0.1101,-0.6271 -0.238,-1.269 -0.3827,-1.9264 -0.1451,-0.6577 -0.3278,-1.422 -0.5487,-2.2937 l -1.0893,-4.4628 c -0.2443,-1.0009 -0.0405,-0.8806 -0.9561,-0.8806 h -2.9623 c -0.7696,0 -0.5922,-0.042 -0.3604,0.846 l 3.2983,12.6393 c 0.1929,0.7184 0.5071,1.2499 0.9419,1.5937 0.4343,0.3439 0.9209,0.516 1.4593,0.516 0.5657,0 1.0382,-0.149 1.4177,-0.4471 0.3795,-0.2983 0.6937,-0.692 0.9419,-1.1813 l 2.2146,-4.3572 c 0.3037,-0.5965 0.5658,-1.1164 0.7867,-1.5595 0.2209,-0.4435 0.4174,-0.845 0.5901,-1.2041 0.1721,-0.3593 0.3241,-0.6844 0.4553,-0.9749 0.1309,-0.2904 0.2519,-0.5733 0.362,-0.8483 0.1243,0.275 0.2519,0.5579 0.3831,0.8483 0.1313,0.2905 0.2862,0.6156 0.4656,0.9749 0.1793,0.3591 0.3795,0.7643 0.6,1.2153 0.2209,0.451 0.4834,0.9749 0.787,1.571 l 2.2146,4.3345 c 0.2624,0.5048 0.5832,0.9021 0.9627,1.1929 0.3795,0.2904 0.8454,0.4355 1.3973,0.4355 0.538,0 1.0247,-0.1721 1.4592,-0.516 0.4349,-0.3438 0.7488,-0.8753 0.9416,-1.5937 z"
             style="fill:#241f1c;fill-rule:evenodd;stroke:#1b1918;stroke-width:0.216;stroke-linecap:butt;stroke-linejoin:miter;stroke-dasharray:none"
             id="path930" />
        </g>
      </g>
    </g>
  </g>
</svg>
